NotoSerifDisplay-LightItalic.ufo
<glyph name="G" format="2">
  <advance width="645"/>
  <unicode hex="0047"/>
  <anchor x="281" y="0" name="bottom"/>
  <anchor x="443" y="714" name="top"/>
  <anchor x="688" y="714" name="topright"/>
  <outline>
    <contour>
      <point x="319" y="-10" type="curve" smooth="yes"/>
      <point x="387" y="-10"/>
      <point x="446" y="5"/>
      <point x="509" y="32" type="curve"/>
      <point x="564" y="272" type="line" smooth="yes"/>
      <point x="570" y="299"/>
      <point x="576" y="306"/>
      <point x="615" y="306" type="curve" smooth="yes"/>
      <point x="633" y="306" type="line"/>
      <point x="635" y="316" type="line"/>
      <point x="446" y="316" type="line"/>
      <point x="444" y="306" type="line"/>
      <point x="478" y="306" type="line" smooth="yes"/>
      <point x="527" y="306"/>
      <point x="537" y="299"/>
      <point x="537" y="287" type="curve" smooth="yes"/>
      <point x="537" y="283"/>
      <point x="537" y="280"/>
      <point x="536" y="276" type="curve" smooth="yes"/>
      <point x="483" y="40" type="line"/>
      <point x="442" y="15"/>
      <point x="381" y="0"/>
      <point x="320" y="0" type="curve" smooth="yes"/>
      <point x="156" y="0"/>
      <point x="88" y="120"/>
      <point x="88" y="258" type="curve" smooth="yes"/>
      <point x="88" y="504"/>
      <point x="249" y="714"/>
      <point x="447" y="714" type="curve" smooth="yes"/>
      <point x="568" y="714"/>
      <point x="611" y="677"/>
      <point x="611" y="561" type="curve"/>
      <point x="629" y="561"/>
      <point x="638" y="573"/>
      <point x="638" y="591" type="curve" smooth="yes"/>
      <point x="638" y="676"/>
      <point x="569" y="724"/>
      <point x="452" y="724" type="curve" smooth="yes"/>
      <point x="230" y="724"/>
      <point x="60" y="511"/>
      <point x="60" y="258" type="curve" smooth="yes"/>
      <point x="60" y="93"/>
      <point x="144" y="-10"/>
    </contour>
  </outline>
</glyph>
<glyph name="P" format="2">
  <advance width="552"/>
  <unicode hex="0050"/>
  <anchor x="105" y="0" name="bottom"/>
  <anchor x="383" y="714" name="top"/>
  <anchor x="644" y="714" name="topright"/>
  <outline>
    <contour>
      <point x="-9" y="0" type="line"/>
      <point x="232" y="0" type="line"/>
      <point x="234" y="10" type="line"/>
      <point x="175" y="10" type="line" smooth="yes"/>
      <point x="137" y="10"/>
      <point x="127" y="20"/>
      <point x="127" y="39" type="curve" smooth="yes"/>
      <point x="127" y="47"/>
      <point x="128" y="57"/>
      <point x="131" y="68" type="curve" smooth="yes"/>
      <point x="180" y="295" type="line"/>
      <point x="251" y="295" type="line" smooth="yes"/>
      <point x="510" y="295"/>
      <point x="551" y="415"/>
      <point x="551" y="549" type="curve" smooth="yes"/>
      <point x="551" y="637"/>
      <point x="484" y="714"/>
      <point x="349" y="714" type="curve" smooth="yes"/>
      <point x="144" y="714" type="line"/>
      <point x="141" y="704" type="line"/>
      <point x="176" y="704" type="line" smooth="yes"/>
      <point x="214" y="704"/>
      <point x="230" y="696"/>
      <point x="230" y="672" type="curve" smooth="yes"/>
      <point x="230" y="666"/>
      <point x="229" y="658"/>
      <point x="227" y="650" type="curve" smooth="yes"/>
      <point x="105" y="73" type="line" smooth="yes"/>
      <point x="94" y="21"/>
      <point x="85" y="10"/>
      <point x="35" y="10" type="curve" smooth="yes"/>
      <point x="-7" y="10" type="line"/>
    </contour>
    <contour>
      <point x="183" y="305" type="line"/>
      <point x="267" y="704" type="line"/>
      <point x="348" y="704" type="line" smooth="yes"/>
      <point x="466" y="704"/>
      <point x="523" y="641"/>
      <point x="523" y="536" type="curve" smooth="yes"/>
      <point x="523" y="382"/>
      <point x="445" y="305"/>
      <point x="245" y="305" type="curve" smooth="yes"/>
    </contour>
  </outline>
</glyph>
<glyph name="h" format="2">
  <advance width="508"/>
  <unicode hex="0068"/>
  <anchor x="207" y="0" name="bottom"/>
  <anchor x="321" y="268" name="center"/>
  <anchor x="369" y="760" name="top"/>
  <anchor x="521" y="760" name="topright"/>
  <outline>
    <contour>
      <point x="407" y="-10" type="curve" smooth="yes"/>
      <point x="442" y="-10"/>
      <point x="465" y="7"/>
      <point x="493" y="32" type="curve"/>
      <point x="486" y="39" type="line"/>
      <point x="460" y="14"/>
      <point x="435" y="0"/>
      <point x="412" y="0" type="curve" smooth="yes"/>
      <point x="379" y="0"/>
      <point x="367" y="24"/>
      <point x="367" y="65" type="curve" smooth="yes"/>
      <point x="367" y="100"/>
      <point x="376" y="146"/>
      <point x="388" y="200" type="curve" smooth="yes"/>
      <point x="418" y="332" type="line" smooth="yes"/>
      <point x="425" y="364"/>
      <point x="436" y="407"/>
      <point x="436" y="438" type="curve" smooth="yes"/>
      <point x="436" y="495"/>
      <point x="410" y="543"/>
      <point x="339" y="543" type="curve" smooth="yes"/>
      <point x="273" y="543"/>
      <point x="213" y="496"/>
      <point x="158" y="396" type="curve"/>
      <point x="156" y="396" type="line"/>
      <point x="165" y="430"/>
      <point x="175" y="477"/>
      <point x="181" y="509" type="curve" smooth="yes"/>
      <point x="233" y="760" type="line"/>
      <point x="110" y="760" type="line"/>
      <point x="107" y="750" type="line"/>
      <point x="129" y="750" type="line" smooth="yes"/>
      <point x="180" y="750"/>
      <point x="194" y="745"/>
      <point x="194" y="724" type="curve" smooth="yes"/>
      <point x="194" y="716"/>
      <point x="193" y="706"/>
      <point x="190" y="694" type="curve" smooth="yes"/>
      <point x="49" y="0" type="line"/>
      <point x="77" y="0" type="line"/>
      <point x="151" y="351" type="line" smooth="yes"/>
      <point x="159" y="391"/>
      <point x="237" y="528"/>
      <point x="335" y="528" type="curve" smooth="yes"/>
      <point x="392" y="528"/>
      <point x="409" y="496"/>
      <point x="409" y="450" type="curve" smooth="yes"/>
      <point x="409" y="416"/>
      <point x="400" y="374"/>
      <point x="390" y="332" type="curve" smooth="yes"/>
      <point x="360" y="200" type="line" smooth="yes"/>
      <point x="349" y="155"/>
      <point x="342" y="114"/>
      <point x="342" y="83" type="curve" smooth="yes"/>
      <point x="342" y="20"/>
      <point x="364" y="-10"/>
    </contour>
  </outline>
</glyph>
<glyph name="j" format="2">
  <advance width="230"/>
  <unicode hex="006A"/>
  <anchor x="-89" y="-240" name="bottom"/>
  <anchor x="217" y="741" name="top"/>
  <anchor x="311" y="741" name="topright"/>
  <outline>
    <contour>
      <point x="-89" y="-240" type="curve" smooth="yes"/>
      <point x="-2" y="-240"/>
      <point x="40" y="-189"/>
      <point x="76" y="-14" type="curve" smooth="yes"/>
      <point x="190" y="536" type="line"/>
      <point x="70" y="536" type="line"/>
      <point x="68" y="526" type="line"/>
      <point x="89" y="526" type="line" smooth="yes"/>
      <point x="140" y="526"/>
      <point x="148" y="521"/>
      <point x="148" y="489" type="curve" smooth="yes"/>
      <point x="148" y="472"/>
      <point x="145" y="454"/>
      <point x="143" y="442" type="curve" smooth="yes"/>
      <point x="47" y="-26" type="line" smooth="yes"/>
      <point x="16" y="-177"/>
      <point x="-21" y="-230"/>
      <point x="-90" y="-230" type="curve" smooth="yes"/>
      <point x="-107" y="-230"/>
      <point x="-125" y="-228"/>
      <point x="-138" y="-225" type="curve"/>
      <point x="-140" y="-235" type="line"/>
      <point x="-127" y="-238"/>
      <point x="-112" y="-240"/>
    </contour>
    <contour>
      <point x="201" y="681" type="curve" smooth="yes"/>
      <point x="215" y="681"/>
      <point x="228" y="690"/>
      <point x="228" y="714" type="curve" smooth="yes"/>
      <point x="228" y="731"/>
      <point x="218" y="741"/>
      <point x="203" y="741" type="curve" smooth="yes"/>
      <point x="187" y="741"/>
      <point x="176" y="727"/>
      <point x="176" y="707" type="curve" smooth="yes"/>
      <point x="176" y="690"/>
      <point x="187" y="681"/>
    </contour>
  </outline>
</glyph>
<glyph name="t" format="2">
  <advance width="289"/>
  <unicode hex="0074"/>
  <anchor x="89" y="0" name="bottom"/>
  <anchor x="203" y="268" name="center"/>
  <anchor x="229" y="659" name="top"/>
  <anchor x="337" y="659" name="topright"/>
  <outline>
    <contour>
      <point x="144" y="-10" type="curve" smooth="yes"/>
      <point x="170" y="-10"/>
      <point x="207" y="-2"/>
      <point x="240" y="14" type="curve"/>
      <point x="237" y="22" type="line"/>
      <point x="203" y="8"/>
      <point x="178" y="0"/>
      <point x="140" y="0" type="curve" smooth="yes"/>
      <point x="103" y="0"/>
      <point x="91" y="22"/>
      <point x="91" y="60" type="curve" smooth="yes"/>
      <point x="91" y="80"/>
      <point x="94" y="103"/>
      <point x="110" y="177" type="curve" smooth="yes"/>
      <point x="184" y="526" type="line"/>
      <point x="292" y="526" type="line"/>
      <point x="296" y="536" type="line"/>
      <point x="187" y="536" type="line"/>
      <point x="212" y="659" type="line"/>
      <point x="202" y="659" type="line"/>
      <point x="175" y="536"/>
      <point x="155" y="533"/>
      <point x="82" y="531" type="curve"/>
      <point x="80" y="526" type="line"/>
      <point x="156" y="526" type="line"/>
      <point x="85" y="192" type="line" smooth="yes"/>
      <point x="70" y="121"/>
      <point x="66" y="95"/>
      <point x="66" y="75" type="curve" smooth="yes"/>
      <point x="66" y="28"/>
      <point x="83" y="-10"/>
    </contour>
  </outline>
</glyph>
<glyph name="AE" format="2">
  <advance width="892"/>
  <unicode hex="00C6"/>
  <anchor x="390" y="0" name="bottom"/>
  <anchor x="632" y="714" name="top"/>
  <outline>
    <contour>
      <point x="-62" y="0" type="line"/>
      <point x="152" y="0" type="line"/>
      <point x="154" y="10" type="line"/>
      <point x="112" y="10" type="line" smooth="yes"/>
      <point x="61" y="10"/>
      <point x="41" y="17"/>
      <point x="41" y="32" type="curve" smooth="yes"/>
      <point x="41" y="44"/>
      <point x="49" y="56"/>
      <point x="61" y="74" type="curve" smooth="yes"/>
      <point x="199" y="273" type="line"/>
      <point x="443" y="273" type="line"/>
      <point x="395" y="50" type="line" smooth="yes"/>
      <point x="387" y="15"/>
      <point x="381" y="10"/>
      <point x="322" y="10" type="curve" smooth="yes"/>
      <point x="289" y="10" type="line"/>
      <point x="286" y="0" type="line"/>
      <point x="774" y="0" type="line"/>
      <point x="814" y="161" type="line"/>
      <point x="804" y="161" type="line"/>
      <point x="790" y="113" type="line" smooth="yes"/>
      <point x="762" y="17"/>
      <point x="754" y="10"/>
      <point x="691" y="10" type="curve" smooth="yes"/>
      <point x="415" y="10" type="line"/>
      <point x="491" y="371" type="line"/>
      <point x="752" y="371" type="line"/>
      <point x="753" y="381" type="line"/>
      <point x="494" y="381" type="line"/>
      <point x="562" y="704" type="line"/>
      <point x="806" y="704" type="line" smooth="yes"/>
      <point x="857" y="704"/>
      <point x="862" y="682"/>
      <point x="863" y="652" type="curve" smooth="yes"/>
      <point x="864" y="634"/>
      <point x="856" y="573"/>
      <point x="853" y="553" type="curve"/>
      <point x="863" y="553" type="line"/>
      <point x="893" y="714" type="line"/>
      <point x="360" y="714" type="line"/>
      <point x="358" y="704" type="line"/>
      <point x="487" y="704" type="line"/>
      <point x="58" y="88" type="line" smooth="yes"/>
      <point x="3" y="9"/>
      <point x="-6" y="10"/>
      <point x="-43" y="10" type="curve" smooth="yes"/>
      <point x="-60" y="10" type="line"/>
    </contour>
    <contour>
      <point x="206" y="283" type="line"/>
      <point x="354" y="493" type="line" smooth="yes"/>
      <point x="394" y="550"/>
      <point x="465" y="653"/>
      <point x="500" y="704" type="curve"/>
      <point x="534" y="704" type="line"/>
      <point x="445" y="283" type="line"/>
    </contour>
  </outline>
</glyph>
<glyph name="Oslash" format="2">
  <advance width="689"/>
  <unicode hex="00D8"/>
  <anchor x="282" y="0" name="bottom"/>
  <anchor x="434" y="714" name="top"/>
  <anchor x="394" y="357" name="center"/>
  <anchor x="769" y="714" name="topright"/>
  <outline>
    <contour>
      <point x="70" y="-40" type="line"/>
      <point x="83" y="-40" type="line"/>
      <point x="651" y="755" type="line"/>
      <point x="638" y="755" type="line"/>
    </contour>
    <component base="O"/>
  </outline>
</glyph>
<glyph name="dcroat" format="2">
  <advance width="483"/>
  <unicode hex="0111"/>
  <anchor x="195" y="0" name="bottom"/>
  <anchor x="357" y="760" name="top"/>
  <anchor x="284" y="268" name="center"/>
  <anchor x="534" y="760" name="topright"/>
  <outline>
    <contour>
      <point x="247" y="625" type="line"/>
      <point x="552" y="625" type="line"/>
      <point x="555" y="635" type="line"/>
      <point x="250" y="635" type="line"/>
    </contour>
    <component base="d"/>
  </outline>
</glyph>
<glyph name="hbar" format="2">
  <advance width="506"/>
  <unicode hex="0127"/>
  <anchor x="207" y="0" name="bottom"/>
  <anchor x="369" y="760" name="top"/>
  <anchor x="321" y="268" name="center"/>
  <anchor x="521" y="760" name="topright"/>
  <outline>
    <contour>
      <point x="83" y="633" type="line"/>
      <point x="391" y="633" type="line"/>
      <point x="393" y="643" type="line"/>
      <point x="85" y="643" type="line"/>
    </contour>
    <component base="h"/>
  </outline>
</glyph>
<glyph name="uni019A" format="2">
  <advance width="243"/>
  <unicode hex="019A"/>
  <anchor x="65" y="0" name="bottom"/>
  <anchor x="227" y="760" name="top"/>
  <anchor x="184" y="268" name="center"/>
  <anchor x="333" y="760" name="topright"/>
  <outline>
    <contour>
      <point x="57" y="387" type="line"/>
      <point x="217" y="387" type="line"/>
      <point x="220" y="397" type="line"/>
      <point x="59" y="397" type="line"/>
    </contour>
    <component base="l"/>
  </outline>
</glyph>
<glyph name="uni01B6" format="2">
  <advance width="450"/>
  <unicode hex="01B6"/>
  <anchor x="169" y="0" name="bottom"/>
  <anchor x="283" y="536" name="top"/>
  <anchor x="489" y="536" name="topright"/>
  <outline>
    <contour>
      <point x="90" y="268" type="line"/>
      <point x="317" y="268" type="line"/>
      <point x="319" y="278" type="line"/>
      <point x="93" y="278" type="line"/>
    </contour>
    <component base="z"/>
  </outline>
</glyph>
<glyph name="uni01E5" format="2">
  <advance width="526"/>
  <unicode hex="01E5"/>
  <anchor x="156" y="-240" name="bottom"/>
  <anchor x="327" y="566" name="top"/>
  <anchor x="556" y="536" name="topright"/>
  <outline>
    <contour>
      <point x="224" y="-84" type="line"/>
      <point x="481" y="-84" type="line"/>
      <point x="483" y="-74" type="line"/>
      <point x="226" y="-74" type="line"/>
    </contour>
    <component base="g"/>
  </outline>
</glyph>
<glyph name="uni0244" format="2">
  <advance width="708"/>
  <unicode hex="0244"/>
  <anchor x="298" y="0" name="bottom"/>
  <anchor x="450" y="714" name="top"/>
  <anchor x="809" y="714" name="topright"/>
  <outline>
    <contour>
      <point x="60" y="365" type="line"/>
      <point x="684" y="365" type="line"/>
      <point x="684" y="375" type="line"/>
      <point x="61" y="375" type="line"/>
    </contour>
    <component base="U"/>
  </outline>
</glyph>
<glyph name="uni0246" format="2">
  <advance width="611"/>
  <unicode hex="0246"/>
  <anchor x="214" y="-138" name="bottom"/>
  <anchor x="401" y="714" name="top"/>
  <anchor x="690" y="714" name="topright"/>
  <outline>
    <contour>
      <point x="110" y="-90" type="line"/>
      <point x="123" y="-90" type="line"/>
      <point x="549" y="760" type="line"/>
      <point x="538" y="760" type="line"/>
    </contour>
    <component base="E"/>
  </outline>
</glyph>
<glyph name="uni0248" format="2">
  <advance width="300"/>
  <unicode hex="0248"/>
  <anchor x="43" y="-240" name="bottom"/>
  <anchor x="246" y="714" name="top"/>
  <anchor x="368" y="714" name="topright"/>
  <outline>
    <contour>
      <point x="69" y="367" type="line"/>
      <point x="270" y="367" type="line"/>
      <point x="270" y="377" type="line"/>
      <point x="70" y="377" type="line"/>
    </contour>
    <component base="J"/>
  </outline>
</glyph>
<glyph name="uni024E" format="2">
  <advance width="538"/>
  <unicode hex="024E"/>
  <anchor x="211" y="0" name="bottom"/>
  <anchor x="363" y="714" name="top"/>
  <anchor x="681" y="714" name="topright"/>
  <outline>
    <contour>
      <point x="67" y="539" type="line"/>
      <point x="598" y="539" type="line"/>
      <point x="600" y="549" type="line"/>
      <point x="69" y="549" type="line"/>
    </contour>
    <component base="Y"/>
  </outline>
</glyph>
<glyph name="uni024F" format="2">
  <advance width="453"/>
  <unicode hex="024F"/>
  <anchor x="28" y="-240" name="bottom"/>
  <anchor x="263" y="536" name="top"/>
  <anchor x="464" y="536" name="topright"/>
  <outline>
    <contour>
      <point x="25" y="311" type="line"/>
      <point x="467" y="311" type="line"/>
      <point x="468" y="321" type="line"/>
      <point x="26" y="321" type="line"/>
    </contour>
    <component base="y"/>
  </outline>
</glyph>
<glyph name="schwahook" format="2">
  <advance width="561"/>
  <unicode hex="025A"/>
  <anchor x="145" y="0" name="bottom"/>
  <anchor x="265" y="536" name="top"/>
  <outline>
    <contour>
      <point x="125" y="-10" type="curve" smooth="yes"/>
      <point x="260" y="-10"/>
      <point x="360" y="135"/>
      <point x="371" y="309" type="curve"/>
      <point x="425" y="321" type="line"/>
      <point x="431" y="296" type="line" smooth="yes"/>
      <point x="446" y="235"/>
      <point x="465" y="202"/>
      <point x="503" y="202" type="curve" smooth="yes"/>
      <point x="529" y="202"/>
      <point x="550" y="218"/>
      <point x="550" y="243" type="curve" smooth="yes"/>
      <point x="550" y="262"/>
      <point x="538" y="270"/>
      <point x="531" y="271" type="curve"/>
      <point x="531" y="243"/>
      <point x="513" y="230"/>
      <point x="493" y="230" type="curve" smooth="yes"/>
      <point x="469" y="230"/>
      <point x="453" y="245"/>
      <point x="440" y="302" type="curve" smooth="yes"/>
      <point x="433" y="333" type="line"/>
      <point x="372" y="319" type="line"/>
      <point x="372" y="479"/>
      <point x="313" y="546"/>
      <point x="212" y="546" type="curve" smooth="yes"/>
      <point x="123" y="546"/>
      <point x="71" y="484"/>
      <point x="71" y="459" type="curve" smooth="yes"/>
      <point x="71" y="453"/>
      <point x="73" y="449"/>
      <point x="77" y="449" type="curve"/>
      <point x="113" y="514"/>
      <point x="156" y="536"/>
      <point x="212" y="536" type="curve" smooth="yes"/>
      <point x="295" y="536"/>
      <point x="344" y="459"/>
      <point x="344" y="345" type="curve" smooth="yes"/>
      <point x="344" y="331"/>
      <point x="344" y="325"/>
      <point x="343" y="312" type="curve"/>
      <point x="114" y="252"/>
      <point x="16" y="203"/>
      <point x="16" y="96" type="curve" smooth="yes"/>
      <point x="16" y="31"/>
      <point x="56" y="-10"/>
    </contour>
    <contour>
      <point x="127" y="0" type="curve" smooth="yes"/>
      <point x="75" y="0"/>
      <point x="44" y="36"/>
      <point x="44" y="99" type="curve" smooth="yes"/>
      <point x="44" y="200"/>
      <point x="137" y="251"/>
      <point x="343" y="302" type="curve"/>
      <point x="322" y="111"/>
      <point x="226" y="0"/>
    </contour>
  </outline>
</glyph>
<glyph name="uni026B" format="2">
  <advance width="271"/>
  <unicode hex="026B"/>
  <anchor x="78" y="0" name="bottom"/>
  <anchor x="240" y="760" name="top"/>
  <anchor x="207" y="268" name="center"/>
  <anchor x="356" y="760" name="topright"/>
  <outline>
    <contour>
      <point x="228" y="359" type="curve" smooth="yes"/>
      <point x="275" y="359"/>
      <point x="294" y="399"/>
      <point x="305" y="438" type="curve"/>
      <point x="295" y="438" type="line"/>
      <point x="283" y="396"/>
      <point x="266" y="383"/>
      <point x="232" y="383" type="curve" smooth="yes"/>
      <point x="186" y="383"/>
      <point x="156" y="440"/>
      <point x="95" y="440" type="curve" smooth="yes"/>
      <point x="45" y="440"/>
      <point x="24" y="391"/>
      <point x="14" y="356" type="curve"/>
      <point x="24" y="356" type="line"/>
      <point x="39" y="396"/>
      <point x="54" y="416"/>
      <point x="89" y="416" type="curve" smooth="yes"/>
      <point x="137" y="416"/>
      <point x="172" y="359"/>
    </contour>
    <component base="l" xOffset="23"/>
  </outline>
</glyph>
<glyph name="rfishhookreversed" format="2">
  <advance width="250"/>
  <unicode hex="027F"/>
  <anchor x="3" y="-240" name="bottom"/>
  <anchor x="168" y="536" name="top"/>
  <outline>
    <contour>
      <point x="30" y="-240" type="line"/>
      <point x="58" y="-240" type="line"/>
      <point x="175" y="296" type="line" smooth="yes"/>
      <point x="191" y="369"/>
      <point x="195" y="391"/>
      <point x="195" y="431" type="curve" smooth="yes"/>
      <point x="195" y="501"/>
      <point x="162" y="542"/>
      <point x="106" y="542" type="curve" smooth="yes"/>
      <point x="61" y="542"/>
      <point x="31" y="516"/>
      <point x="31" y="479" type="curve" smooth="yes"/>
      <point x="31" y="463"/>
      <point x="40" y="452"/>
      <point x="54" y="450" type="curve"/>
      <point x="54" y="514"/>
      <point x="77" y="532"/>
      <point x="111" y="532" type="curve" smooth="yes"/>
      <point x="148" y="532"/>
      <point x="169" y="505"/>
      <point x="169" y="446" type="curve" smooth="yes"/>
      <point x="169" y="399"/>
      <point x="162" y="363"/>
      <point x="152" y="316" type="curve" smooth="yes"/>
    </contour>
  </outline>
</glyph>
<glyph name="macron" format="2">
  <advance width="370"/>
  <unicode hex="02C9"/>
  <outline>
    <contour>
      <point x="118" y="636" type="line"/>
      <point x="408" y="636" type="line"/>
      <point x="412" y="656" type="line"/>
      <point x="122" y="656" type="line"/>
    </contour>
  </outline>
</glyph>
<glyph name="verticallineabovecomb" format="2">
  <unicode hex="030D"/>
  <anchor x="57" y="536" name="_top"/>
  <anchor x="104" y="760" name="top"/>
  <outline>
    <contour>
      <point x="57" y="587" type="line"/>
      <point x="78" y="587" type="line"/>
      <point x="115" y="760" type="line"/>
      <point x="94" y="760" type="line"/>
    </contour>
  </outline>
</glyph>
<glyph name="commaaccent" format="2">
  <unicode hex="0326"/>
  <anchor x="-52" y="0" name="_bottom"/>
  <anchor x="-80" y="-221" name="bottom"/>
  <outline>
    <contour>
      <point x="-134" y="-221" type="line"/>
      <point x="-126" y="-221" type="line"/>
      <point x="-103" y="-183"/>
      <point x="-64" y="-113"/>
      <point x="-44" y="-71" type="curve"/>
      <point x="-44" y="-61" type="line"/>
      <point x="-73" y="-61" type="line"/>
      <point x="-90" y="-109"/>
      <point x="-115" y="-171"/>
      <point x="-134" y="-213" type="curve"/>
    </contour>
  </outline>
</glyph>
<glyph name="homotheticabovecomb" format="2">
  <unicode hex="034B"/>
  <anchor x="56" y="536" name="_top"/>
  <anchor x="113" y="828" name="top"/>
  <outline>
    <contour>
      <point x="-68" y="668" type="curve"/>
      <point x="-58" y="668" type="line"/>
      <point x="-48" y="695"/>
      <point x="-34" y="726"/>
      <point x="6" y="726" type="curve" smooth="yes"/>
      <point x="79" y="726"/>
      <point x="105" y="671"/>
      <point x="167" y="671" type="curve" smooth="yes"/>
      <point x="220" y="671"/>
      <point x="243" y="711"/>
      <point x="255" y="750" type="curve"/>
      <point x="245" y="750" type="line"/>
      <point x="236" y="723"/>
      <point x="221" y="697"/>
      <point x="184" y="697" type="curve" smooth="yes"/>
      <point x="112" y="697"/>
      <point x="93" y="752"/>
      <point x="26" y="752" type="curve" smooth="yes"/>
      <point x="-29" y="752"/>
      <point x="-57" y="703"/>
    </contour>
    <contour>
      <point x="67" y="585" type="curve" smooth="yes"/>
      <point x="91" y="585"/>
      <point x="100" y="618"/>
      <point x="100" y="641" type="curve" smooth="yes"/>
      <point x="100" y="658"/>
      <point x="93" y="665"/>
      <point x="82" y="665" type="curve" smooth="yes"/>
      <point x="57" y="665"/>
      <point x="50" y="632"/>
      <point x="50" y="609" type="curve" smooth="yes"/>
      <point x="50" y="591"/>
      <point x="57" y="585"/>
    </contour>
    <contour>
      <point x="105" y="767" type="curve" smooth="yes"/>
      <point x="129" y="767"/>
      <point x="138" y="800"/>
      <point x="138" y="823" type="curve" smooth="yes"/>
      <point x="138" y="840"/>
      <point x="131" y="847"/>
      <point x="120" y="847" type="curve" smooth="yes"/>
      <point x="95" y="847"/>
      <point x="88" y="814"/>
      <point x="88" y="791" type="curve" smooth="yes"/>
      <point x="88" y="773"/>
      <point x="95" y="767"/>
    </contour>
  </outline>
</glyph>
<glyph name="heta" format="2">
  <advance width="433"/>
  <unicode hex="0371"/>
  <anchor x="166" y="0" name="bottom"/>
  <anchor x="280" y="536" name="top"/>
  <outline>
    <contour>
      <point x="53" y="0" type="line"/>
      <point x="80" y="0" type="line"/>
      <point x="135" y="274" type="line"/>
      <point x="409" y="274" type="line"/>
      <point x="412" y="284" type="line"/>
      <point x="137" y="284" type="line"/>
      <point x="187" y="536" type="line"/>
      <point x="62" y="536" type="line"/>
      <point x="60" y="526" type="line"/>
      <point x="86" y="526" type="line" smooth="yes"/>
      <point x="132" y="526"/>
      <point x="146" y="520"/>
      <point x="146" y="489" type="curve" smooth="yes"/>
      <point x="146" y="477"/>
      <point x="143" y="462"/>
      <point x="140" y="442" type="curve" smooth="yes"/>
    </contour>
  </outline>
</glyph>
<glyph name="Omega" format="2">
  <advance width="682"/>
  <unicode hex="03A9"/>
  <anchor x="254" y="0" name="bottom"/>
  <anchor x="392" y="714" name="top"/>
  <anchor x="113" y="714" name="topleft"/>
  <outline>
    <contour>
      <point x="-20" y="0" type="line"/>
      <point x="224" y="0" type="line"/>
      <point x="254" y="145" type="line"/>
      <point x="131" y="157"/>
      <point x="77" y="252"/>
      <point x="77" y="377" type="curve" smooth="yes"/>
      <point x="77" y="547"/>
      <point x="181" y="715"/>
      <point x="392" y="715" type="curve" smooth="yes"/>
      <point x="536" y="715"/>
      <point x="612" y="624"/>
      <point x="612" y="490" type="curve" smooth="yes"/>
      <point x="612" y="328"/>
      <point x="518" y="149"/>
      <point x="308" y="145" type="curve"/>
      <point x="280" y="0" type="line"/>
      <point x="539" y="0" type="line"/>
      <point x="588" y="141" type="line"/>
      <point x="578" y="141" type="line"/>
      <point x="548" y="66" type="line" smooth="yes"/>
      <point x="534" y="30"/>
      <point x="522" y="25"/>
      <point x="491" y="25" type="curve" smooth="yes"/>
      <point x="295" y="25" type="line"/>
      <point x="317" y="138" type="line"/>
      <point x="530" y="142"/>
      <point x="637" y="309"/>
      <point x="637" y="485" type="curve" smooth="yes"/>
      <point x="637" y="632"/>
      <point x="546" y="725"/>
      <point x="392" y="725" type="curve" smooth="yes"/>
      <point x="178" y="725"/>
      <point x="49" y="570"/>
      <point x="49" y="374" type="curve" smooth="yes"/>
      <point x="49" y="254"/>
      <point x="118" y="149"/>
      <point x="242" y="138" type="curve"/>
      <point x="219" y="25" type="line"/>
      <point x="43" y="25" type="line" smooth="yes"/>
      <point x="7" y="25"/>
      <point x="-3" y="32"/>
      <point x="-1" y="76" type="curve" smooth="yes"/>
      <point x="2" y="143" type="line"/>
      <point x="-8" y="143" type="line"/>
    </contour>
  </outline>
</glyph>
<glyph name="epsilon" format="2">
  <advance width="435"/>
  <unicode hex="03B5"/>
  <anchor x="161" y="0" name="bottom"/>
  <anchor x="275" y="536" name="top"/>
  <outline>
    <contour>
      <point x="196" y="-10" type="curve" smooth="yes"/>
      <point x="287" y="-10"/>
      <point x="359" y="43"/>
      <point x="359" y="94" type="curve" smooth="yes"/>
      <point x="359" y="102"/>
      <point x="356" y="108"/>
      <point x="350" y="109" type="curve"/>
      <point x="325" y="55"/>
      <point x="281" y="0"/>
      <point x="196" y="0" type="curve" smooth="yes"/>
      <point x="106" y="0"/>
      <point x="57" y="56"/>
      <point x="57" y="132" type="curve" smooth="yes"/>
      <point x="57" y="202"/>
      <point x="106" y="262"/>
      <point x="199" y="276" type="curve"/>
      <point x="218" y="273"/>
      <point x="233" y="270"/>
      <point x="265" y="270" type="curve" smooth="yes"/>
      <point x="292" y="270"/>
      <point x="311" y="272"/>
      <point x="311" y="286" type="curve" smooth="yes"/>
      <point x="311" y="295"/>
      <point x="295" y="297"/>
      <point x="273" y="297" type="curve" smooth="yes"/>
      <point x="245" y="297"/>
      <point x="227" y="294"/>
      <point x="205" y="290" type="curve"/>
      <point x="160" y="308"/>
      <point x="128" y="335"/>
      <point x="128" y="395" type="curve" smooth="yes"/>
      <point x="128" y="460"/>
      <point x="172" y="533"/>
      <point x="277" y="533" type="curve" smooth="yes"/>
      <point x="375" y="533"/>
      <point x="401" y="470"/>
      <point x="401" y="403" type="curve"/>
      <point x="415" y="403"/>
      <point x="420" y="421"/>
      <point x="420" y="443" type="curve" smooth="yes"/>
      <point x="420" y="497"/>
      <point x="368" y="543"/>
      <point x="278" y="543" type="curve" smooth="yes"/>
      <point x="168" y="543"/>
      <point x="103" y="481"/>
      <point x="103" y="395" type="curve" smooth="yes"/>
      <point x="103" y="328"/>
      <point x="140" y="307"/>
      <point x="185" y="287" type="curve"/>
      <point x="185" y="285" type="line"/>
      <point x="92" y="267"/>
      <point x="31" y="219"/>
      <point x="31" y="128" type="curve" smooth="yes"/>
      <point x="31" y="43"/>
      <point x="95" y="-10"/>
    </contour>
  </outline>
</glyph>
<glyph name="lambda" format="2">
  <advance width="484"/>
  <unicode hex="03BB"/>
  <anchor x="188" y="0" name="bottom"/>
  <anchor x="352" y="770" name="top"/>
  <outline>
    <contour>
      <point x="-34" y="0" type="line"/>
      <point x="-4" y="0" type="line"/>
      <point x="211" y="319" type="line" smooth="yes"/>
      <point x="257" y="387"/>
      <point x="281" y="426"/>
      <point x="293" y="450" type="curve"/>
      <point x="295" y="450" type="line"/>
      <point x="304" y="286"/>
      <point x="312" y="192"/>
      <point x="319" y="123" type="curve" smooth="yes"/>
      <point x="329" y="29"/>
      <point x="359" y="0"/>
      <point x="431" y="0" type="curve" smooth="yes"/>
      <point x="453" y="0" type="line"/>
      <point x="454" y="10" type="line"/>
      <point x="437" y="10" type="line" smooth="yes"/>
      <point x="376" y="10"/>
      <point x="341" y="30"/>
      <point x="332" y="148" type="curve" smooth="yes"/>
      <point x="297" y="593" type="line" smooth="yes"/>
      <point x="287" y="714"/>
      <point x="262" y="770"/>
      <point x="197" y="770" type="curve" smooth="yes"/>
      <point x="158" y="770"/>
      <point x="131" y="750"/>
      <point x="131" y="724" type="curve" smooth="yes"/>
      <point x="131" y="717"/>
      <point x="133" y="711"/>
      <point x="136" y="706" type="curve"/>
      <point x="141" y="733"/>
      <point x="161" y="760"/>
      <point x="193" y="760" type="curve" smooth="yes"/>
      <point x="263" y="760"/>
      <point x="281" y="666"/>
      <point x="290" y="483" type="curve"/>
    </contour>
  </outline>
</glyph>
<glyph name="afii10091" format="2">
  <advance width="798"/>
  <unicode hex="0449"/>
  <anchor x="341" y="0" name="bottom"/>
  <anchor x="455" y="536" name="top"/>
  <outline>
    <contour>
      <point x="605" y="-228" type="curve" smooth="yes"/>
      <point x="701" y="-228"/>
      <point x="728" y="-191"/>
      <point x="774" y="30" type="curve"/>
      <point x="764" y="37" type="line"/>
      <point x="743" y="6" type="line"/>
      <point x="701" y="-200"/>
      <point x="655" y="-218"/>
      <point x="611" y="-218" type="curve" smooth="yes"/>
      <point x="597" y="-218"/>
      <point x="579" y="-218"/>
      <point x="562" y="-216" type="curve"/>
      <point x="560" y="-226" type="line"/>
      <point x="577" y="-227"/>
      <point x="590" y="-228"/>
    </contour>
    <component base="afii10090"/>
  </outline>
</glyph>
<glyph name="uni048E" format="2">
  <advance width="565"/>
  <unicode hex="048E"/>
  <anchor x="227" y="0" name="bottom"/>
  <anchor x="379" y="714" name="top"/>
  <anchor x="644" y="714" name="topright"/>
  <outline>
    <contour>
      <point x="518" y="243" type="line"/>
      <point x="526" y="249" type="line"/>
      <point x="370" y="472" type="line"/>
      <point x="362" y="466" type="line"/>
    </contour>
    <component base="P"/>
  </outline>
</glyph>
<glyph name="uni0492" format="2">
  <advance width="549"/>
  <unicode hex="0492"/>
  <anchor x="205" y="0" name="bottom"/>
  <anchor x="357" y="714" name="top"/>
  <outline>
    <contour>
      <point x="30" y="364" type="line"/>
      <point x="359" y="364" type="line"/>
      <point x="362" y="374" type="line"/>
      <point x="33" y="374" type="line"/>
    </contour>
    <component base="Gamma"/>
  </outline>
</glyph>
<glyph name="uni04B8" format="2">
  <advance width="758"/>
  <unicode hex="04B8"/>
  <anchor x="323" y="0" name="bottom"/>
  <anchor x="475" y="714" name="top"/>
  <outline>
    <contour>
      <point x="282" y="104" type="line"/>
      <point x="292" y="104" type="line"/>
      <point x="375" y="496" type="line"/>
      <point x="365" y="496" type="line"/>
    </contour>
    <component base="afii10041"/>
  </outline>
</glyph>
<glyph name="uni04CB" format="2">
  <advance width="719"/>
  <unicode hex="04CB"/>
  <anchor x="278" y="-210" name="bottom"/>
  <anchor x="475" y="714" name="top"/>
  <outline>
    <contour>
      <point x="324" y="-210" type="line"/>
      <point x="334" y="-210" type="line"/>
      <point x="377" y="-11"/>
      <point x="386" y="0"/>
      <point x="492" y="0" type="curve"/>
      <point x="402" y="10" type="line"/>
      <point x="372" y="10" type="line"/>
    </contour>
    <component base="afii10041"/>
  </outline>
</glyph>
<glyph name="uni04E9" format="2">
  <advance width="517"/>
  <unicode hex="04E9"/>
  <anchor x="202" y="0" name="bottom"/>
  <anchor x="316" y="536" name="top"/>
  <anchor x="308" y="268" name="center"/>
  <anchor x="546" y="536" name="topright"/>
  <outline>
    <contour>
      <point x="73" y="268" type="line"/>
      <point x="448" y="268" type="line"/>
      <point x="448" y="278" type="line"/>
      <point x="73" y="278" type="line"/>
    </contour>
    <component base="o"/>
  </outline>
</glyph>
<glyph name="uni04F6" format="2">
  <advance width="522"/>
  <unicode hex="04F6"/>
  <anchor x="159" y="-210" name="bottom"/>
  <anchor x="356" y="714" name="top"/>
  <outline>
    <contour>
      <point x="168" y="-210" type="curve"/>
      <point x="178" y="-210" type="line"/>
      <point x="226" y="10" type="line"/>
      <point x="171" y="10" type="line"/>
      <point x="131" y="0" type="line"/>
      <point x="175" y="0"/>
      <point x="195" y="-4"/>
      <point x="195" y="-48" type="curve" smooth="yes"/>
      <point x="195" y="-78"/>
      <point x="185" y="-128"/>
    </contour>
    <component base="Gamma" xOffset="-1"/>
  </outline>
</glyph>
<glyph name="uni0513" format="2">
  <advance width="638"/>
  <unicode hex="0513"/>
  <anchor x="252" y="0" name="bottom"/>
  <anchor x="406" y="536" name="top"/>
  <outline>
    <contour>
      <point x="445" y="-197" type="curve" smooth="yes"/>
      <point x="497" y="-197"/>
      <point x="528" y="-160"/>
      <point x="545" y="-75" type="curve" smooth="yes"/>
      <point x="565" y="24" type="line"/>
      <point x="553" y="20" type="line"/>
      <point x="534" y="-76" type="line" smooth="yes"/>
      <point x="520" y="-145"/>
      <point x="484" y="-167"/>
      <point x="449" y="-167" type="curve" smooth="yes"/>
      <point x="424" y="-167"/>
      <point x="409" y="-156"/>
      <point x="397" y="-130" type="curve"/>
      <point x="387" y="-137"/>
      <point x="384" y="-144"/>
      <point x="384" y="-157" type="curve" smooth="yes"/>
      <point x="384" y="-176"/>
      <point x="405" y="-197"/>
    </contour>
    <component base="afii10077" xOffset="7"/>
  </outline>
</glyph>
<glyph name="uni1D13" format="2">
  <advance width="578"/>
  <unicode hex="1D13"/>
  <anchor x="232" y="0" name="bottom"/>
  <anchor x="346" y="536" name="top"/>
  <outline>
    <contour>
      <point x="561" y="35" type="line"/>
      <point x="563" y="50" type="line"/>
      <point x="42" y="506" type="line"/>
      <point x="42" y="491" type="line"/>
    </contour>
    <component base="uni1D11" xOffset="-1"/>
  </outline>
</glyph>
<glyph name="uni1D6F" format="2">
  <advance width="782"/>
  <unicode hex="1D6F"/>
  <anchor x="353" y="0" name="bottom"/>
  <anchor x="467" y="536" name="top"/>
  <anchor x="849" y="536" name="topright"/>
  <outline>
    <contour>
      <point x="0" y="220" type="curve"/>
      <point x="11" y="220" type="line"/>
      <point x="30" y="272"/>
      <point x="80" y="292"/>
      <point x="194" y="292" type="curve" smooth="yes"/>
      <point x="354" y="292"/>
      <point x="431" y="227"/>
      <point x="580" y="227" type="curve" smooth="yes"/>
      <point x="685" y="227"/>
      <point x="742" y="254"/>
      <point x="772" y="324" type="curve"/>
      <point x="761" y="324" type="line"/>
      <point x="741" y="273"/>
      <point x="693" y="252"/>
      <point x="578" y="252" type="curve" smooth="yes"/>
      <point x="439" y="252"/>
      <point x="365" y="317"/>
      <point x="192" y="317" type="curve" smooth="yes"/>
      <point x="100" y="317"/>
      <point x="26" y="293"/>
    </contour>
    <component base="m"/>
  </outline>
</glyph>
<glyph name="uni1D71" format="2">
  <advance width="484"/>
  <unicode hex="1D71"/>
  <anchor x="16" y="-240" name="bottom"/>
  <anchor x="291" y="536" name="top"/>
  <anchor x="500" y="536" name="topright"/>
  <outline>
    <contour>
      <point x="-106" y="-137" type="curve"/>
      <point x="-96" y="-137" type="line"/>
      <point x="-81" y="-87"/>
      <point x="-63" y="-70"/>
      <point x="-22" y="-70" type="curve" smooth="yes"/>
      <point x="29" y="-70"/>
      <point x="46" y="-148"/>
      <point x="116" y="-148" type="curve" smooth="yes"/>
      <point x="170" y="-148"/>
      <point x="192" y="-94"/>
      <point x="200" y="-55" type="curve"/>
      <point x="190" y="-55" type="line"/>
      <point x="177" y="-98"/>
      <point x="161" y="-124"/>
      <point x="117" y="-124" type="curve" smooth="yes"/>
      <point x="62" y="-124"/>
      <point x="43" y="-44"/>
      <point x="-17" y="-44" type="curve" smooth="yes"/>
      <point x="-73" y="-44"/>
      <point x="-100" y="-102"/>
    </contour>
    <component base="p"/>
  </outline>
</glyph>
<glyph name="uni1D7D" format="2">
  <advance width="518"/>
  <unicode hex="1D7D"/>
  <anchor x="16" y="-240" name="bottom"/>
  <anchor x="291" y="536" name="top"/>
  <anchor x="500" y="536" name="topright"/>
  <outline>
    <contour>
      <point x="27" y="278" type="line"/>
      <point x="496" y="278" type="line"/>
      <point x="498" y="288" type="line"/>
      <point x="30" y="288" type="line"/>
    </contour>
    <component base="p"/>
  </outline>
</glyph>
<glyph name="uni1D8A" format="2">
  <advance width="399"/>
  <unicode hex="1D8A"/>
  <anchor x="143" y="0" name="bottom"/>
  <anchor x="257" y="536" name="top"/>
  <anchor x="436" y="536" name="topright"/>
  <outline>
    <contour>
      <point x="157" y="-196" type="curve" smooth="yes"/>
      <point x="222" y="-196"/>
      <point x="245" y="-145"/>
      <point x="259" y="-83" type="curve" smooth="yes"/>
      <point x="286" y="38" type="line"/>
      <point x="272" y="26" type="line"/>
      <point x="249" y="-77" type="line" smooth="yes"/>
      <point x="235" y="-141"/>
      <point x="204" y="-171"/>
      <point x="159" y="-171" type="curve" smooth="yes"/>
      <point x="134" y="-171"/>
      <point x="126" y="-155"/>
      <point x="124" y="-140" type="curve"/>
      <point x="113" y="-143"/>
      <point x="106" y="-151"/>
      <point x="106" y="-163" type="curve" smooth="yes"/>
      <point x="106" y="-183"/>
      <point x="124" y="-196"/>
    </contour>
    <component base="s"/>
  </outline>
</glyph>
<glyph name="longsdiagonalstroke" format="2">
  <advance width="223"/>
  <unicode hex="1E9C"/>
  <anchor x="-79" y="-240" name="bottom"/>
  <anchor x="302" y="770" name="top"/>
  <outline>
    <contour>
      <point x="27" y="308" type="line"/>
      <point x="245" y="415" type="line"/>
      <point x="247" y="427" type="line"/>
      <point x="29" y="320" type="line"/>
    </contour>
    <component base="longs"/>
  </outline>
</glyph>
<glyph name="yloop" format="2">
  <advance width="471"/>
  <unicode hex="1EFF"/>
  <anchor x="128" y="-240" name="bottom"/>
  <anchor x="293" y="536" name="top"/>
  <outline>
    <contour>
      <point x="35" y="-236" type="curve" smooth="yes"/>
      <point x="98" y="-236"/>
      <point x="138" y="-197"/>
      <point x="250" y="-3" type="curve" smooth="yes"/>
      <point x="359" y="186"/>
      <point x="428" y="318"/>
      <point x="428" y="461" type="curve" smooth="yes"/>
      <point x="428" y="521"/>
      <point x="415" y="543"/>
      <point x="395" y="543" type="curve" smooth="yes"/>
      <point x="379" y="543"/>
      <point x="368" y="536"/>
      <point x="368" y="519" type="curve"/>
      <point x="397" y="519"/>
      <point x="415" y="509"/>
      <point x="415" y="449" type="curve" smooth="yes"/>
      <point x="415" y="315"/>
      <point x="339" y="170"/>
      <point x="263" y="41" type="curve"/>
      <point x="260" y="41" type="line"/>
      <point x="251" y="81"/>
      <point x="233" y="147"/>
      <point x="217" y="195" type="curve" smooth="yes"/>
      <point x="106" y="536" type="line"/>
      <point x="32" y="536" type="line"/>
      <point x="29" y="526" type="line"/>
      <point x="42" y="526" type="line" smooth="yes"/>
      <point x="81" y="526"/>
      <point x="80" y="524"/>
      <point x="97" y="473" type="curve" smooth="yes"/>
      <point x="247" y="10" type="line"/>
      <point x="217" y="-39" type="line"/>
      <point x="190" y="-23"/>
      <point x="146" y="-1"/>
      <point x="105" y="-1" type="curve" smooth="yes"/>
      <point x="10" y="-1"/>
      <point x="-56" y="-51"/>
      <point x="-56" y="-138" type="curve" smooth="yes"/>
      <point x="-56" y="-193"/>
      <point x="-24" y="-236"/>
    </contour>
    <contour>
      <point x="35" y="-226" type="curve" smooth="yes"/>
      <point x="0" y="-226"/>
      <point x="-45" y="-201"/>
      <point x="-45" y="-138" type="curve" smooth="yes"/>
      <point x="-45" y="-49"/>
      <point x="29" y="-11"/>
      <point x="104" y="-11" type="curve" smooth="yes"/>
      <point x="138" y="-11"/>
      <point x="188" y="-31"/>
      <point x="212" y="-48" type="curve"/>
      <point x="171" y="-113" type="line" smooth="yes"/>
      <point x="117" y="-199"/>
      <point x="80" y="-226"/>
    </contour>
  </outline>
</glyph>
<glyph name="bullet" format="2">
  <advance width="291"/>
  <unicode hex="2022"/>
  <outline>
    <contour>
      <point x="165" y="231" type="curve" smooth="yes"/>
      <point x="226" y="229"/>
      <point x="269" y="263"/>
      <point x="271" y="356" type="curve" smooth="yes"/>
      <point x="269" y="450"/>
      <point x="226" y="483"/>
      <point x="165" y="481" type="curve" smooth="yes"/>
      <point x="101" y="479"/>
      <point x="58" y="450"/>
      <point x="56" y="356" type="curve" smooth="yes"/>
      <point x="58" y="263"/>
      <point x="101" y="233"/>
    </contour>
  </outline>
</glyph>
<glyph name="tironiansignet" format="2">
  <advance width="456"/>
  <unicode hex="204A"/>
  <outline>
    <contour>
      <point x="243" y="-177" type="line"/>
      <point x="264" y="-177" type="line"/>
      <point x="416" y="537" type="line"/>
      <point x="416" y="553" type="line"/>
      <point x="340" y="541"/>
      <point x="292" y="534"/>
      <point x="183" y="534" type="curve" smooth="yes"/>
      <point x="117" y="534"/>
      <point x="95" y="544"/>
      <point x="65" y="564" type="curve"/>
      <point x="63" y="562"/>
      <point x="60" y="556"/>
      <point x="60" y="548" type="curve" smooth="yes"/>
      <point x="60" y="530"/>
      <point x="77" y="507"/>
      <point x="170" y="507" type="curve" smooth="yes"/>
      <point x="255" y="507"/>
      <point x="344" y="521"/>
      <point x="394" y="529" type="curve"/>
    </contour>
  </outline>
</glyph>
<glyph name="fivesuperior" format="2">
  <advance width="400"/>
  <unicode hex="2075"/>
  <outline>
    <contour>
      <point x="238" y="380" type="curve" smooth="yes"/>
      <point x="347" y="380"/>
      <point x="399" y="450"/>
      <point x="399" y="526" type="curve" smooth="yes"/>
      <point x="399" y="595"/>
      <point x="359" y="639"/>
      <point x="278" y="639" type="curve" smooth="yes"/>
      <point x="238" y="639"/>
      <point x="191" y="625"/>
      <point x="159" y="605" type="curve"/>
      <point x="209" y="789" type="line"/>
      <point x="368" y="789" type="line" smooth="yes"/>
      <point x="395" y="789"/>
      <point x="409" y="784"/>
      <point x="409" y="766" type="curve" smooth="yes"/>
      <point x="409" y="756"/>
      <point x="405" y="734"/>
      <point x="403" y="722" type="curve"/>
      <point x="412" y="722" type="line"/>
      <point x="430" y="814" type="line"/>
      <point x="206" y="814" type="line"/>
      <point x="147" y="599" type="line"/>
      <point x="157" y="593" type="line"/>
      <point x="189" y="612"/>
      <point x="229" y="629"/>
      <point x="281" y="627" type="curve" smooth="yes"/>
      <point x="348" y="625"/>
      <point x="371" y="574"/>
      <point x="371" y="523" type="curve" smooth="yes"/>
      <point x="371" y="438"/>
      <point x="317" y="390"/>
      <point x="238" y="390" type="curve" smooth="yes"/>
      <point x="167" y="390"/>
      <point x="134" y="426"/>
      <point x="134" y="489" type="curve"/>
      <point x="117" y="489"/>
      <point x="110" y="468"/>
      <point x="110" y="453" type="curve" smooth="yes"/>
      <point x="110" y="421"/>
      <point x="144" y="380"/>
    </contour>
  </outline>
</glyph>
<glyph name="ninesuperior" format="2">
  <advance width="400"/>
  <unicode hex="2079"/>
  <outline>
    <contour>
      <point x="212" y="378" type="curve" smooth="yes"/>
      <point x="351" y="378"/>
      <point x="436" y="532"/>
      <point x="436" y="662" type="curve" smooth="yes"/>
      <point x="436" y="765"/>
      <point x="383" y="821"/>
      <point x="292" y="821" type="curve" smooth="yes"/>
      <point x="196" y="821"/>
      <point x="130" y="759"/>
      <point x="130" y="671" type="curve" smooth="yes"/>
      <point x="130" y="595"/>
      <point x="180" y="550"/>
      <point x="264" y="550" type="curve" smooth="yes"/>
      <point x="308" y="550"/>
      <point x="354" y="562"/>
      <point x="399" y="589" type="curve"/>
      <point x="374" y="484"/>
      <point x="316" y="388"/>
      <point x="212" y="388" type="curve" smooth="yes"/>
      <point x="155" y="388"/>
      <point x="134" y="414"/>
      <point x="134" y="478" type="curve"/>
      <point x="117" y="478"/>
      <point x="107" y="466"/>
      <point x="107" y="447" type="curve" smooth="yes"/>
      <point x="107" y="408"/>
      <point x="151" y="378"/>
    </contour>
    <contour>
      <point x="264" y="560" type="curve" smooth="yes"/>
      <point x="195" y="560"/>
      <point x="158" y="611"/>
      <point x="158" y="673" type="curve" smooth="yes"/>
      <point x="158" y="761"/>
      <point x="215" y="811"/>
      <point x="292" y="811" type="curve" smooth="yes"/>
      <point x="368" y="811"/>
      <point x="408" y="755"/>
      <point x="408" y="663" type="curve" smooth="yes"/>
      <point x="408" y="649"/>
      <point x="406" y="621"/>
      <point x="402" y="601" type="curve"/>
      <point x="374" y="584"/>
      <point x="321" y="560"/>
    </contour>
  </outline>
</glyph>
<glyph name="parenrightsuperior" format="2">
  <advance width="250"/>
  <unicode hex="207E"/>
  <outline>
    <contour>
      <point x="15" y="198" type="line"/>
      <point x="180" y="237"/>
      <point x="271" y="394"/>
      <point x="271" y="549" type="curve" smooth="yes"/>
      <point x="271" y="648"/>
      <point x="232" y="747"/>
      <point x="141" y="790" type="curve"/>
      <point x="140" y="780" type="line"/>
      <point x="212" y="739"/>
      <point x="243" y="634"/>
      <point x="243" y="545" type="curve" smooth="yes"/>
      <point x="243" y="406"/>
      <point x="170" y="250"/>
      <point x="17" y="208" type="curve"/>
    </contour>
  </outline>
</glyph>
<glyph name="franc" format="2">
  <advance width="559"/>
  <unicode hex="20A3"/>
  <outline>
    <contour>
      <point x="-13" y="0" type="line"/>
      <point x="213" y="0" type="line"/>
      <point x="215" y="10" type="line"/>
      <point x="171" y="10" type="line" smooth="yes"/>
      <point x="135" y="10"/>
      <point x="124" y="19"/>
      <point x="124" y="41" type="curve" smooth="yes"/>
      <point x="124" y="51"/>
      <point x="126" y="65"/>
      <point x="130" y="82" type="curve" smooth="yes"/>
      <point x="157" y="208" type="line"/>
      <point x="285" y="208" type="line"/>
      <point x="288" y="218" type="line"/>
      <point x="159" y="218" type="line"/>
      <point x="188" y="351" type="line"/>
      <point x="449" y="351" type="line"/>
      <point x="450" y="361" type="line"/>
      <point x="191" y="361" type="line"/>
      <point x="263" y="704" type="line"/>
      <point x="499" y="704" type="line" smooth="yes"/>
      <point x="545" y="704"/>
      <point x="559" y="692"/>
      <point x="559" y="661" type="curve" smooth="yes"/>
      <point x="559" y="637"/>
      <point x="551" y="602"/>
      <point x="543" y="553" type="curve"/>
      <point x="553" y="553" type="line"/>
      <point x="583" y="714" type="line"/>
      <point x="140" y="714" type="line"/>
      <point x="138" y="704" type="line"/>
      <point x="172" y="704" type="line" smooth="yes"/>
      <point x="213" y="704"/>
      <point x="226" y="698"/>
      <point x="226" y="673" type="curve" smooth="yes"/>
      <point x="226" y="655"/>
      <point x="219" y="628"/>
      <point x="210" y="586" type="curve" smooth="yes"/>
      <point x="131" y="218" type="line"/>
      <point x="36" y="218" type="line"/>
      <point x="33" y="208" type="line"/>
      <point x="129" y="208" type="line"/>
      <point x="102" y="80" type="line" smooth="yes"/>
      <point x="89" y="21"/>
      <point x="81" y="10"/>
      <point x="31" y="10" type="curve" smooth="yes"/>
      <point x="-11" y="10" type="line"/>
    </contour>
  </outline>
</glyph>
<glyph name="peseta" format="2">
  <advance width="717"/>
  <unicode hex="20A7"/>
  <outline>
    <contour>
      <point x="-47" y="0" type="line"/>
      <point x="194" y="0" type="line"/>
      <point x="196" y="10" type="line"/>
      <point x="137" y="10" type="line" smooth="yes"/>
      <point x="102" y="10"/>
      <point x="90" y="18"/>
      <point x="90" y="40" type="curve" smooth="yes"/>
      <point x="90" y="51"/>
      <point x="93" y="65"/>
      <point x="97" y="84" type="curve" smooth="yes"/>
      <point x="142" y="295" type="line"/>
      <point x="182" y="295" type="line" smooth="yes"/>
      <point x="441" y="295"/>
      <point x="488" y="424"/>
      <point x="488" y="523" type="curve" smooth="yes"/>
      <point x="488" y="650"/>
      <point x="412" y="714"/>
      <point x="286" y="714" type="curve" smooth="yes"/>
      <point x="106" y="714" type="line"/>
      <point x="103" y="704" type="line"/>
      <point x="138" y="704" type="line" smooth="yes"/>
      <point x="184" y="704"/>
      <point x="191" y="700"/>
      <point x="191" y="675" type="curve" smooth="yes"/>
      <point x="191" y="660"/>
      <point x="185" y="628"/>
      <point x="176" y="586" type="curve" smooth="yes"/>
      <point x="69" y="86" type="line" smooth="yes"/>
      <point x="55" y="21"/>
      <point x="47" y="10"/>
      <point x="-3" y="10" type="curve" smooth="yes"/>
      <point x="-45" y="10" type="line"/>
    </contour>
    <contour>
      <point x="145" y="305" type="line"/>
      <point x="228" y="699" type="line"/>
      <point x="284" y="699" type="line" smooth="yes"/>
      <point x="402" y="699"/>
      <point x="460" y="630"/>
      <point x="460" y="523" type="curve" smooth="yes"/>
      <point x="460" y="405"/>
      <point x="382" y="305"/>
      <point x="182" y="305" type="curve" smooth="yes"/>
    </contour>
    <contour>
      <point x="562" y="-10" type="curve" smooth="yes"/>
      <point x="588" y="-10"/>
      <point x="616" y="-6"/>
      <point x="652" y="10" type="curve"/>
      <point x="649" y="20" type="line"/>
      <point x="618" y="4"/>
      <point x="588" y="0"/>
      <point x="561" y="0" type="curve" smooth="yes"/>
      <point x="524" y="0"/>
      <point x="504" y="27"/>
      <point x="504" y="71" type="curve" smooth="yes"/>
      <point x="504" y="97"/>
      <point x="508" y="118"/>
      <point x="523" y="192" type="curve" smooth="yes"/>
      <point x="558" y="359" type="line"/>
      <point x="668" y="359" type="line"/>
      <point x="670" y="369" type="line"/>
      <point x="559" y="369" type="line"/>
      <point x="586" y="492" type="line"/>
      <point x="576" y="492" type="line"/>
      <point x="549" y="379"/>
      <point x="537" y="366"/>
      <point x="458" y="364" type="curve"/>
      <point x="456" y="359" type="line"/>
      <point x="530" y="359" type="line"/>
      <point x="495" y="192" type="line" smooth="yes"/>
      <point x="480" y="121"/>
      <point x="476" y="95"/>
      <point x="476" y="75" type="curve" smooth="yes"/>
      <point x="476" y="20"/>
      <point x="501" y="-10"/>
    </contour>
  </outline>
</glyph>
<glyph name="uni20B5" format="2">
  <advance width="574"/>
  <unicode hex="20B5"/>
  <anchor x="236" y="0" name="bottom"/>
  <anchor x="408" y="714" name="top"/>
  <anchor x="653" y="714" name="topright"/>
  <outline>
    <contour>
      <point x="234" y="-95" type="line"/>
      <point x="244" y="-95" type="line"/>
      <point x="429" y="758" type="line"/>
      <point x="419" y="758" type="line"/>
    </contour>
    <component base="C"/>
  </outline>
</glyph>
<glyph name="spesmilo" format="2">
  <advance width="525"/>
  <unicode hex="20B7"/>
  <outline>
    <contour>
      <point x="65" y="-89" type="line"/>
      <point x="89" y="-89" type="line"/>
      <point x="106" y="-6" type="line"/>
      <point x="127" y="-11"/>
      <point x="153" y="-14"/>
      <point x="181" y="-15" type="curve"/>
      <point x="166" y="-89" type="line"/>
      <point x="190" y="-89" type="line"/>
      <point x="205" y="-15" type="line"/>
      <point x="234" y="-14"/>
      <point x="260" y="-11"/>
      <point x="283" y="-5" type="curve"/>
      <point x="266" y="-89" type="line"/>
      <point x="290" y="-89" type="line"/>
      <point x="309" y="2" type="line"/>
      <point x="393" y="28"/>
      <point x="446" y="87"/>
      <point x="446" y="174" type="curve" smooth="yes"/>
      <point x="446" y="257"/>
      <point x="410" y="302"/>
      <point x="284" y="377" type="curve" smooth="yes"/>
      <point x="209" y="422"/>
      <point x="168" y="461"/>
      <point x="168" y="531" type="curve" smooth="yes"/>
      <point x="168" y="655"/>
      <point x="256" y="714"/>
      <point x="346" y="714" type="curve" smooth="yes"/>
      <point x="461" y="714"/>
      <point x="479" y="649"/>
      <point x="479" y="575" type="curve"/>
      <point x="495" y="575"/>
      <point x="506" y="585"/>
      <point x="506" y="605" type="curve" smooth="yes"/>
      <point x="506" y="660"/>
      <point x="470" y="724"/>
      <point x="346" y="724" type="curve" smooth="yes"/>
      <point x="217" y="724"/>
      <point x="140" y="640"/>
      <point x="140" y="531" type="curve" smooth="yes"/>
      <point x="140" y="443"/>
      <point x="189" y="401"/>
      <point x="270" y="354" type="curve" smooth="yes"/>
      <point x="391" y="283"/>
      <point x="418" y="242"/>
      <point x="418" y="174" type="curve" smooth="yes"/>
      <point x="418" y="103"/>
      <point x="375" y="39"/>
      <point x="311" y="15" type="curve"/>
      <point x="326" y="80" type="line" smooth="yes"/>
      <point x="329" y="93"/>
      <point x="331" y="105"/>
      <point x="331" y="116" type="curve" smooth="yes"/>
      <point x="331" y="141"/>
      <point x="321" y="156"/>
      <point x="292" y="156" type="curve" smooth="yes"/>
      <point x="263" y="156"/>
      <point x="239" y="138"/>
      <point x="226" y="99" type="curve"/>
      <point x="224" y="99" type="line"/>
      <point x="228" y="144"/>
      <point x="216" y="156"/>
      <point x="188" y="156" type="curve" smooth="yes"/>
      <point x="162" y="156"/>
      <point x="137" y="141"/>
      <point x="123" y="98" type="curve"/>
      <point x="121" y="98" type="line"/>
      <point x="125" y="143"/>
      <point x="111" y="156"/>
      <point x="82" y="156" type="curve" smooth="yes"/>
      <point x="45" y="156"/>
      <point x="12" y="126"/>
      <point x="12" y="85" type="curve" smooth="yes"/>
      <point x="12" y="43"/>
      <point x="36" y="16"/>
      <point x="84" y="0" type="curve"/>
    </contour>
    <contour>
      <point x="85" y="11" type="line"/>
      <point x="50" y="24"/>
      <point x="22" y="46"/>
      <point x="22" y="87" type="curve" smooth="yes"/>
      <point x="22" y="114"/>
      <point x="42" y="146"/>
      <point x="78" y="146" type="curve" smooth="yes"/>
      <point x="94" y="146"/>
      <point x="106" y="140"/>
      <point x="106" y="114" type="curve" smooth="yes"/>
      <point x="106" y="104"/>
      <point x="105" y="92"/>
      <point x="101" y="77" type="curve" smooth="yes"/>
    </contour>
    <contour>
      <point x="183" y="-5" type="line"/>
      <point x="153" y="-4"/>
      <point x="127" y="-1"/>
      <point x="107" y="4" type="curve"/>
      <point x="116" y="43" type="line" smooth="yes"/>
      <point x="136" y="128"/>
      <point x="156" y="146"/>
      <point x="186" y="146" type="curve" smooth="yes"/>
      <point x="200" y="146"/>
      <point x="205" y="130"/>
      <point x="205" y="109" type="curve" smooth="yes"/>
      <point x="205" y="98"/>
      <point x="203" y="86"/>
      <point x="201" y="74" type="curve" smooth="yes"/>
    </contour>
    <contour>
      <point x="206" y="-5" type="curve"/>
      <point x="224" y="66" type="line" smooth="yes"/>
      <point x="237" y="117"/>
      <point x="259" y="146"/>
      <point x="286" y="146" type="curve" smooth="yes"/>
      <point x="301" y="146"/>
      <point x="308" y="139"/>
      <point x="308" y="121" type="curve" smooth="yes"/>
      <point x="308" y="112"/>
      <point x="306" y="100"/>
      <point x="303" y="85" type="curve" smooth="yes"/>
      <point x="285" y="6" type="line"/>
      <point x="261" y="-1"/>
      <point x="235" y="-5"/>
    </contour>
  </outline>
</glyph>
<glyph name="accountof" format="2">
  <advance width="782"/>
  <unicode hex="2100"/>
  <outline>
    <contour>
      <point x="220" y="0" type="line"/>
      <point x="232" y="0" type="line"/>
      <point x="720" y="714" type="line"/>
      <point x="708" y="714" type="line"/>
    </contour>
    <contour>
      <point x="560" y="-10" type="curve" smooth="yes"/>
      <point x="625" y="-10"/>
      <point x="663" y="21"/>
      <point x="663" y="47" type="curve" smooth="yes"/>
      <point x="663" y="53"/>
      <point x="661" y="57"/>
      <point x="658" y="59" type="curve"/>
      <point x="639" y="28"/>
      <point x="604" y="0"/>
      <point x="560" y="0" type="curve" smooth="yes"/>
      <point x="507" y="0"/>
      <point x="467" y="43"/>
      <point x="467" y="120" type="curve" smooth="yes"/>
      <point x="467" y="215"/>
      <point x="523" y="320"/>
      <point x="614" y="320" type="curve" smooth="yes"/>
      <point x="656" y="320"/>
      <point x="682" y="289"/>
      <point x="682" y="251" type="curve" smooth="yes"/>
      <point x="682" y="248"/>
      <point x="682" y="246"/>
      <point x="682" y="243" type="curve"/>
      <point x="697" y="243"/>
      <point x="708" y="252"/>
      <point x="708" y="269" type="curve" smooth="yes"/>
      <point x="708" y="298"/>
      <point x="677" y="330"/>
      <point x="614" y="330" type="curve" smooth="yes"/>
      <point x="503" y="330"/>
      <point x="439" y="215"/>
      <point x="439" y="121" type="curve" smooth="yes"/>
      <point x="439" y="33"/>
      <point x="493" y="-10"/>
    </contour>
    <contour>
      <point x="209" y="376" type="curve" smooth="yes"/>
      <point x="255" y="376"/>
      <point x="308" y="418"/>
      <point x="342" y="481" type="curve"/>
      <point x="338" y="464"/>
      <point x="336" y="447"/>
      <point x="336" y="431" type="curve" smooth="yes"/>
      <point x="336" y="400"/>
      <point x="347" y="376"/>
      <point x="383" y="376" type="curve" smooth="yes"/>
      <point x="413" y="376"/>
      <point x="437" y="391"/>
      <point x="453" y="403" type="curve"/>
      <point x="449" y="410" type="line"/>
      <point x="429" y="397"/>
      <point x="408" y="386"/>
      <point x="392" y="386" type="curve" smooth="yes"/>
      <point x="369" y="386"/>
      <point x="362" y="402"/>
      <point x="362" y="425" type="curve" smooth="yes"/>
      <point x="362" y="444"/>
      <point x="368" y="491"/>
      <point x="373" y="511" type="curve" smooth="yes"/>
      <point x="420" y="717" type="line"/>
      <point x="411" y="717" type="line"/>
      <point x="390" y="700" type="line"/>
      <point x="373" y="715"/>
      <point x="346" y="724"/>
      <point x="315" y="724" type="curve" smooth="yes"/>
      <point x="191" y="724"/>
      <point x="122" y="589"/>
      <point x="122" y="490" type="curve" smooth="yes"/>
      <point x="122" y="419"/>
      <point x="148" y="376"/>
    </contour>
    <contour>
      <point x="209" y="386" type="curve" smooth="yes"/>
      <point x="173" y="386"/>
      <point x="151" y="427"/>
      <point x="151" y="490" type="curve" smooth="yes"/>
      <point x="151" y="571"/>
      <point x="213" y="714"/>
      <point x="320" y="714" type="curve" smooth="yes"/>
      <point x="346" y="714"/>
      <point x="370" y="707"/>
      <point x="385" y="689" type="curve"/>
      <point x="348" y="518" type="line" smooth="yes"/>
      <point x="338" y="473"/>
      <point x="272" y="386"/>
    </contour>
  </outline>
</glyph>
<glyph name="cadauna" format="2">
  <advance width="800"/>
  <unicode hex="2106"/>
  <outline>
    <contour>
      <point x="199" y="399" type="curve" smooth="yes"/>
      <point x="264" y="399"/>
      <point x="302" y="430"/>
      <point x="302" y="456" type="curve" smooth="yes"/>
      <point x="302" y="462"/>
      <point x="300" y="466"/>
      <point x="297" y="468" type="curve"/>
      <point x="278" y="437"/>
      <point x="243" y="409"/>
      <point x="199" y="409" type="curve" smooth="yes"/>
      <point x="146" y="409"/>
      <point x="106" y="452"/>
      <point x="106" y="529" type="curve" smooth="yes"/>
      <point x="106" y="624"/>
      <point x="162" y="729"/>
      <point x="253" y="729" type="curve" smooth="yes"/>
      <point x="295" y="729"/>
      <point x="321" y="698"/>
      <point x="321" y="660" type="curve" smooth="yes"/>
      <point x="321" y="657"/>
      <point x="321" y="655"/>
      <point x="321" y="652" type="curve"/>
      <point x="336" y="652"/>
      <point x="347" y="661"/>
      <point x="347" y="678" type="curve" smooth="yes"/>
      <point x="347" y="707"/>
      <point x="316" y="739"/>
      <point x="253" y="739" type="curve" smooth="yes"/>
      <point x="142" y="739"/>
      <point x="78" y="624"/>
      <point x="78" y="530" type="curve" smooth="yes"/>
      <point x="78" y="442"/>
      <point x="132" y="399"/>
    </contour>
    <contour>
      <point x="91" y="0" type="line"/>
      <point x="103" y="0" type="line"/>
      <point x="591" y="714" type="line"/>
      <point x="579" y="714" type="line"/>
    </contour>
    <contour>
      <point x="494" y="-9" type="curve" smooth="yes"/>
      <point x="550" y="-9"/>
      <point x="590" y="27"/>
      <point x="626" y="91" type="curve"/>
      <point x="628" y="91" type="line"/>
      <point x="625" y="78"/>
      <point x="624" y="66"/>
      <point x="624" y="55" type="curve" smooth="yes"/>
      <point x="624" y="19"/>
      <point x="637" y="-9"/>
      <point x="667" y="-9" type="curve" smooth="yes"/>
      <point x="695" y="-9"/>
      <point x="715" y="6"/>
      <point x="729" y="18" type="curve"/>
      <point x="723" y="25" type="line"/>
      <point x="708" y="11"/>
      <point x="690" y="0"/>
      <point x="672" y="0" type="curve" smooth="yes"/>
      <point x="655" y="0"/>
      <point x="649" y="23"/>
      <point x="649" y="55" type="curve" smooth="yes"/>
      <point x="649" y="72"/>
      <point x="653" y="98"/>
      <point x="659" y="125" type="curve" smooth="yes"/>
      <point x="701" y="323" type="line"/>
      <point x="673" y="323" type="line"/>
      <point x="637" y="148" type="line" smooth="yes"/>
      <point x="625" y="91"/>
      <point x="567" y="1"/>
      <point x="496" y="1" type="curve" smooth="yes"/>
      <point x="464" y="1"/>
      <point x="449" y="22"/>
      <point x="449" y="46" type="curve" smooth="yes"/>
      <point x="449" y="65"/>
      <point x="458" y="111"/>
      <point x="465" y="139" type="curve" smooth="yes"/>
      <point x="509" y="323" type="line"/>
      <point x="414" y="323" type="line"/>
      <point x="413" y="313" type="line"/>
      <point x="424" y="313" type="line" smooth="yes"/>
      <point x="457" y="313"/>
      <point x="469" y="309"/>
      <point x="469" y="287" type="curve" smooth="yes"/>
      <point x="469" y="279"/>
      <point x="467" y="262"/>
      <point x="463" y="247" type="curve" smooth="yes"/>
      <point x="435" y="131" type="line" smooth="yes"/>
      <point x="430" y="109"/>
      <point x="423" y="81"/>
      <point x="423" y="61" type="curve" smooth="yes"/>
      <point x="423" y="24"/>
      <point x="443" y="-9"/>
    </contour>
  </outline>
</glyph>
<glyph name="prescription" format="2">
  <advance width="616"/>
  <unicode hex="211E"/>
  <outline>
    <contour>
      <point x="-12" y="0" type="line"/>
      <point x="114" y="0" type="line"/>
      <point x="183" y="334" type="line"/>
      <point x="275" y="334" type="line"/>
      <point x="374" y="138" type="line"/>
      <point x="305" y="56" type="line" smooth="yes"/>
      <point x="266" y="9"/>
      <point x="252" y="10"/>
      <point x="224" y="10" type="curve" smooth="yes"/>
      <point x="211" y="10" type="line"/>
      <point x="208" y="0" type="line"/>
      <point x="272" y="0" type="line"/>
      <point x="379" y="128" type="line"/>
      <point x="406" y="75" type="line" smooth="yes"/>
      <point x="432" y="25"/>
      <point x="467" y="0"/>
      <point x="520" y="0" type="curve" smooth="yes"/>
      <point x="543" y="0" type="line"/>
      <point x="546" y="10" type="line"/>
      <point x="535" y="10" type="line" smooth="yes"/>
      <point x="490" y="10"/>
      <point x="458" y="29"/>
      <point x="432" y="81" type="curve" smooth="yes"/>
      <point x="399" y="146" type="line"/>
      <point x="490" y="250" type="line" smooth="yes"/>
      <point x="507" y="269"/>
      <point x="525" y="276"/>
      <point x="554" y="276" type="curve" smooth="yes"/>
      <point x="576" y="276" type="line"/>
      <point x="578" y="286" type="line"/>
      <point x="508" y="286" type="line"/>
      <point x="394" y="157" type="line"/>
      <point x="302" y="334" type="line"/>
      <point x="495" y="340"/>
      <point x="542" y="465"/>
      <point x="542" y="541" type="curve" smooth="yes"/>
      <point x="542" y="656"/>
      <point x="472" y="714"/>
      <point x="346" y="714" type="curve" smooth="yes"/>
      <point x="141" y="714" type="line"/>
      <point x="138" y="704" type="line"/>
      <point x="173" y="704" type="line" smooth="yes"/>
      <point x="209" y="704"/>
      <point x="224" y="699"/>
      <point x="224" y="668" type="curve" smooth="yes"/>
      <point x="224" y="650"/>
      <point x="219" y="624"/>
      <point x="211" y="586" type="curve" smooth="yes"/>
      <point x="107" y="98" type="line" smooth="yes"/>
      <point x="91" y="21"/>
      <point x="82" y="10"/>
      <point x="32" y="10" type="curve" smooth="yes"/>
      <point x="-10" y="10" type="line"/>
    </contour>
    <contour>
      <point x="186" y="344" type="line"/>
      <point x="264" y="704" type="line"/>
      <point x="345" y="704" type="line" smooth="yes"/>
      <point x="463" y="704"/>
      <point x="514" y="636"/>
      <point x="514" y="541" type="curve" smooth="yes"/>
      <point x="514" y="439"/>
      <point x="448" y="344"/>
      <point x="288" y="344" type="curve" smooth="yes"/>
    </contour>
  </outline>
</glyph>
<glyph name="turnediota" format="2">
  <advance width="265"/>
  <unicode hex="2129"/>
  <outline>
    <contour>
      <point x="69" y="0" type="line"/>
      <point x="98" y="0" type="line"/>
      <point x="163" y="335" type="line" smooth="yes"/>
      <point x="172" y="380"/>
      <point x="181" y="422"/>
      <point x="181" y="453" type="curve" smooth="yes"/>
      <point x="181" y="516"/>
      <point x="160" y="546"/>
      <point x="119" y="546" type="curve" smooth="yes"/>
      <point x="82" y="546"/>
      <point x="58" y="529"/>
      <point x="30" y="504" type="curve"/>
      <point x="38" y="495" type="line"/>
      <point x="71" y="526"/>
      <point x="93" y="536"/>
      <point x="116" y="536" type="curve" smooth="yes"/>
      <point x="145" y="536"/>
      <point x="154" y="516"/>
      <point x="154" y="467" type="curve" smooth="yes"/>
      <point x="154" y="435"/>
      <point x="147" y="389"/>
      <point x="139" y="350" type="curve" smooth="yes"/>
    </contour>
  </outline>
</glyph>
<glyph name="leftdottedsubstitutionbracket" format="2">
  <advance width="342"/>
  <unicode hex="2E04"/>
  <outline>
    <contour>
      <point x="123" y="246" type="line"/>
      <point x="143" y="246" type="line"/>
      <point x="143" y="583" type="line"/>
      <point x="321" y="690" type="line"/>
      <point x="311" y="707" type="line"/>
      <point x="123" y="593" type="line"/>
    </contour>
    <contour>
      <point x="287" y="425" type="curve" smooth="yes"/>
      <point x="310" y="425"/>
      <point x="329" y="439"/>
      <point x="329" y="475" type="curve" smooth="yes"/>
      <point x="329" y="508"/>
      <point x="314" y="525"/>
      <point x="287" y="525" type="curve" smooth="yes"/>
      <point x="258" y="525"/>
      <point x="245" y="507"/>
      <point x="245" y="475" type="curve" smooth="yes"/>
      <point x="245" y="439"/>
      <point x="263" y="425"/>
    </contour>
  </outline>
</glyph>
<glyph name="daggerwithrightguard" format="2">
  <advance width="373"/>
  <unicode hex="2E37"/>
  <outline>
    <contour>
      <point x="89" y="-111" type="curve"/>
      <point x="99" y="-111" type="line"/>
      <point x="137" y="78"/>
      <point x="175" y="216"/>
      <point x="214" y="389" type="curve"/>
      <point x="228" y="502" type="line"/>
      <point x="391" y="492" type="line"/>
      <point x="397" y="522" type="line"/>
      <point x="231" y="512" type="line"/>
      <point x="293" y="760" type="line"/>
      <point x="263" y="760" type="line"/>
      <point x="220" y="506" type="line"/>
      <point x="183" y="387" type="line"/>
      <point x="149" y="209"/>
      <point x="125" y="71"/>
    </contour>
  </outline>
</glyph>
<glyph name="uniA643" format="2">
  <advance width="397"/>
  <unicode hex="A643"/>
  <outline>
    <contour>
      <point x="70" y="266" type="line"/>
      <point x="354" y="266" type="line"/>
      <point x="356" y="277" type="line"/>
      <point x="72" y="277" type="line"/>
    </contour>
    <component base="uniA641"/>
  </outline>
</glyph>
<glyph name="uniA685" format="2">
  <advance width="1014"/>
  <unicode hex="A685"/>
  <anchor x="147" y="0" name="bottom_1"/>
  <anchor x="671" y="0" name="bottom_2"/>
  <anchor x="261" y="536" name="top_1"/>
  <anchor x="785" y="536" name="top_2"/>
  <outline>
    <contour>
      <point x="224" y="277" type="line"/>
      <point x="583" y="277" type="line"/>
      <point x="583" y="287" type="line"/>
      <point x="224" y="287" type="line"/>
    </contour>
    <component base="afii10073"/>
    <component base="afii10076" xOffset="443"/>
  </outline>
</glyph>
<glyph name="uniA749" format="2">
  <advance width="239"/>
  <unicode hex="A749"/>
  <anchor x="70" y="0" name="bottom"/>
  <anchor x="184" y="268" name="center"/>
  <anchor x="232" y="760" name="top"/>
  <anchor x="333" y="760" name="topright"/>
  <outline>
    <contour>
      <point x="88" y="616" type="line"/>
      <point x="282" y="616" type="line"/>
      <point x="284" y="626" type="line"/>
      <point x="91" y="626" type="line"/>
    </contour>
    <component base="l"/>
  </outline>
</glyph>
<glyph name="uniA751" format="2">
  <advance width="518"/>
  <unicode hex="A751"/>
  <anchor x="12" y="-240" name="bottom"/>
  <anchor x="287" y="536" name="top"/>
  <anchor x="500" y="536" name="topright"/>
  <outline>
    <contour>
      <point x="-73" y="-110" type="line"/>
      <point x="184" y="-110" type="line"/>
      <point x="186" y="-100" type="line"/>
      <point x="-71" y="-100" type="line"/>
    </contour>
    <component base="p"/>
  </outline>
</glyph>
<glyph name="uniA767" format="2">
  <advance width="483"/>
  <unicode hex="A767"/>
  <anchor x="134" y="-240" name="bottom"/>
  <anchor x="347" y="760" name="top"/>
  <outline>
    <contour>
      <point x="-115" y="-97" type="line"/>
      <point x="169" y="-97" type="line"/>
      <point x="172" y="-87" type="line"/>
      <point x="-112" y="-87" type="line"/>
    </contour>
    <component base="thorn"/>
  </outline>
</glyph>
<glyph name="uniA7A2" format="2">
  <advance width="647"/>
  <unicode hex="A7A2"/>
  <anchor x="267" y="0" name="bottom"/>
  <anchor x="419" y="714" name="top"/>
  <anchor x="726" y="714" name="topright"/>
  <outline>
    <contour>
      <point x="9" y="114" type="line"/>
      <point x="574" y="257" type="line"/>
      <point x="576" y="268" type="line"/>
      <point x="10" y="124" type="line"/>
    </contour>
    <component base="K"/>
  </outline>
</glyph>
<glyph name="uniA7A4" format="2">
  <advance width="731"/>
  <unicode hex="A7A4"/>
  <anchor x="313" y="0" name="bottom"/>
  <anchor x="445" y="714" name="top"/>
  <anchor x="810" y="714" name="topright"/>
  <outline>
    <contour>
      <point x="56" y="283" type="line"/>
      <point x="700" y="441" type="line"/>
      <point x="703" y="452" type="line"/>
      <point x="59" y="294" type="line"/>
    </contour>
    <component base="N"/>
  </outline>
</glyph>
<glyph name="uniAB4F" format="2">
  <advance width="493"/>
  <unicode hex="AB4F"/>
  <outline>
    <contour>
      <point x="4" y="284" type="line"/>
      <point x="522" y="284" type="line"/>
      <point x="525" y="294" type="line"/>
      <point x="7" y="294" type="line"/>
    </contour>
    <component base="uniAB4E"/>
  </outline>
</glyph>
<glyph name="uniAB60" format="2">
  <advance width="641"/>
  <unicode hex="AB60"/>
  <outline>
    <contour>
      <point x="439" y="-10" type="curve" smooth="yes"/>
      <point x="537" y="-10"/>
      <point x="591" y="59"/>
      <point x="591" y="160" type="curve" smooth="yes"/>
      <point x="591" y="259"/>
      <point x="540" y="303"/>
      <point x="444" y="303" type="curve" smooth="yes"/>
      <point x="419" y="303"/>
      <point x="388" y="300"/>
      <point x="356" y="294" type="curve"/>
      <point x="407" y="536" type="line"/>
      <point x="286" y="536" type="line"/>
      <point x="284" y="526" type="line"/>
      <point x="305" y="526" type="line" smooth="yes"/>
      <point x="357" y="526"/>
      <point x="364" y="521"/>
      <point x="364" y="490" type="curve" smooth="yes"/>
      <point x="364" y="473"/>
      <point x="362" y="454"/>
      <point x="359" y="442" type="curve" smooth="yes"/>
      <point x="328" y="296" type="line" smooth="yes"/>
      <point x="321" y="263"/>
      <point x="308" y="204"/>
      <point x="308" y="149" type="curve" smooth="yes"/>
      <point x="308" y="43"/>
      <point x="354" y="-10"/>
    </contour>
    <contour>
      <point x="143" y="-10" type="curve" smooth="yes"/>
      <point x="176" y="-10"/>
      <point x="201" y="7"/>
      <point x="229" y="32" type="curve"/>
      <point x="221" y="41" type="line"/>
      <point x="201" y="20"/>
      <point x="173" y="0"/>
      <point x="147" y="0" type="curve" smooth="yes"/>
      <point x="116" y="0"/>
      <point x="104" y="26"/>
      <point x="104" y="65" type="curve" smooth="yes"/>
      <point x="104" y="100"/>
      <point x="113" y="152"/>
      <point x="123" y="201" type="curve" smooth="yes"/>
      <point x="190" y="536" type="line"/>
      <point x="70" y="536" type="line"/>
      <point x="68" y="526" type="line"/>
      <point x="89" y="526" type="line" smooth="yes"/>
      <point x="134" y="526"/>
      <point x="149" y="521"/>
      <point x="149" y="490" type="curve" smooth="yes"/>
      <point x="149" y="478"/>
      <point x="147" y="463"/>
      <point x="143" y="442" type="curve" smooth="yes"/>
      <point x="96" y="201" type="line" smooth="yes"/>
      <point x="87" y="156"/>
      <point x="78" y="116"/>
      <point x="78" y="78" type="curve" smooth="yes"/>
      <point x="78" y="20"/>
      <point x="99" y="-10"/>
    </contour>
    <contour>
      <point x="439" y="0" type="curve" smooth="yes"/>
      <point x="373" y="0"/>
      <point x="336" y="50"/>
      <point x="336" y="148" type="curve" smooth="yes"/>
      <point x="336" y="177"/>
      <point x="344" y="224"/>
      <point x="356" y="284" type="curve"/>
      <point x="387" y="291"/>
      <point x="422" y="294"/>
      <point x="445" y="294" type="curve" smooth="yes"/>
      <point x="523" y="294"/>
      <point x="563" y="241"/>
      <point x="563" y="157" type="curve" smooth="yes"/>
      <point x="563" y="52"/>
      <point x="517" y="0"/>
    </contour>
  </outline>
</glyph>
<glyph name="f_f_i" format="2">
  <advance width="746"/>
  <unicode hex="FB03"/>
  <anchor x="182" y="-240" name="bottom"/>
  <anchor x="-64" y="-240" name="bottom_1"/>
  <anchor x="191" y="-240" name="bottom_2"/>
  <anchor x="620" y="-10" name="bottom_3"/>
  <anchor x="187" y="0" name="caret_1"/>
  <anchor x="465" y="0" name="caret_2"/>
  <anchor x="485" y="770" name="top"/>
  <anchor x="295" y="770" name="top_1"/>
  <anchor x="554" y="770" name="top_2"/>
  <anchor x="673" y="548" name="top_3"/>
  <outline>
    <contour>
      <point x="-79" y="-240" type="curve" smooth="yes"/>
      <point x="1" y="-240"/>
      <point x="28" y="-204"/>
      <point x="62" y="-43" type="curve" smooth="yes"/>
      <point x="183" y="526" type="line"/>
      <point x="419" y="526" type="line"/>
      <point x="295" y="-58" type="line" smooth="yes"/>
      <point x="264" y="-205"/>
      <point x="240" y="-230"/>
      <point x="182" y="-230" type="curve" smooth="yes"/>
      <point x="167" y="-230"/>
      <point x="147" y="-227"/>
      <point x="134" y="-222" type="curve"/>
      <point x="130" y="-232" type="line"/>
      <point x="145" y="-237"/>
      <point x="165" y="-240"/>
      <point x="185" y="-240" type="curve" smooth="yes"/>
      <point x="265" y="-240"/>
      <point x="292" y="-204"/>
      <point x="326" y="-43" type="curve" smooth="yes"/>
      <point x="447" y="526" type="line"/>
      <point x="656" y="526" type="line"/>
      <point x="591" y="201" type="line" smooth="yes"/>
      <point x="582" y="156"/>
      <point x="574" y="114"/>
      <point x="574" y="83" type="curve" smooth="yes"/>
      <point x="574" y="20"/>
      <point x="595" y="-10"/>
      <point x="636" y="-10" type="curve" smooth="yes"/>
      <point x="673" y="-10"/>
      <point x="697" y="7"/>
      <point x="725" y="32" type="curve"/>
      <point x="718" y="40" type="line"/>
      <point x="690" y="15"/>
      <point x="668" y="0"/>
      <point x="639" y="0" type="curve" smooth="yes"/>
      <point x="610" y="0"/>
      <point x="600" y="20"/>
      <point x="600" y="68" type="curve" smooth="yes"/>
      <point x="600" y="100"/>
      <point x="611" y="162"/>
      <point x="619" y="201" type="curve" smooth="yes"/>
      <point x="686" y="536" type="line"/>
      <point x="449" y="536" type="line"/>
      <point x="470" y="628" type="line" smooth="yes"/>
      <point x="489" y="711"/>
      <point x="516" y="760"/>
      <point x="575" y="760" type="curve" smooth="yes"/>
      <point x="625" y="760"/>
      <point x="637" y="729"/>
      <point x="637" y="653" type="curve"/>
      <point x="652" y="653"/>
      <point x="664" y="665"/>
      <point x="664" y="683" type="curve" smooth="yes"/>
      <point x="664" y="731"/>
      <point x="634" y="770"/>
      <point x="571" y="770" type="curve" smooth="yes"/>
      <point x="496" y="770"/>
      <point x="457" y="710"/>
      <point x="437" y="613" type="curve" smooth="yes"/>
      <point x="421" y="536" type="line"/>
      <point x="185" y="536" type="line"/>
      <point x="204" y="619" type="line" smooth="yes"/>
      <point x="223" y="701"/>
      <point x="250" y="750"/>
      <point x="309" y="750" type="curve" smooth="yes"/>
      <point x="359" y="750"/>
      <point x="371" y="719"/>
      <point x="371" y="643" type="curve"/>
      <point x="386" y="643"/>
      <point x="398" y="655"/>
      <point x="398" y="673" type="curve" smooth="yes"/>
      <point x="398" y="721"/>
      <point x="368" y="760"/>
      <point x="305" y="760" type="curve" smooth="yes"/>
      <point x="230" y="760"/>
      <point x="191" y="699"/>
      <point x="171" y="603" type="curve" smooth="yes"/>
      <point x="157" y="536" type="line"/>
      <point x="72" y="531" type="line"/>
      <point x="71" y="526" type="line"/>
      <point x="155" y="526" type="line"/>
      <point x="31" y="-58" type="line" smooth="yes"/>
      <point x="0" y="-205"/>
      <point x="-24" y="-230"/>
      <point x="-82" y="-230" type="curve" smooth="yes"/>
      <point x="-97" y="-230"/>
      <point x="-117" y="-227"/>
      <point x="-130" y="-222" type="curve"/>
      <point x="-134" y="-232" type="line"/>
      <point x="-119" y="-237"/>
      <point x="-99" y="-240"/>
    </contour>
  </outline>
</glyph>
<glyph name="longs_t" format="2">
  <advance width="517"/>
  <unicode hex="FB05"/>
  <anchor x="-79" y="-240" name="bottom"/>
  <anchor x="431" y="268" name="center"/>
  <anchor x="354" y="770" name="top"/>
  <anchor x="565" y="659" name="topright"/>
  <outline>
    <contour>
      <point x="-79" y="-240" type="curve" smooth="yes"/>
      <point x="1" y="-240"/>
      <point x="27" y="-204"/>
      <point x="62" y="-43" type="curve" smooth="yes"/>
      <point x="199" y="598" type="line" smooth="yes"/>
      <point x="220" y="707"/>
      <point x="253" y="760"/>
      <point x="327" y="760" type="curve" smooth="yes"/>
      <point x="392" y="760"/>
      <point x="411" y="722"/>
      <point x="411" y="669" type="curve" smooth="yes"/>
      <point x="411" y="633"/>
      <point x="402" y="580"/>
      <point x="383" y="556" type="curve" smooth="yes"/>
      <point x="368" y="537"/>
      <point x="343" y="531"/>
      <point x="310" y="531" type="curve"/>
      <point x="308" y="526" type="line"/>
      <point x="384" y="526" type="line"/>
      <point x="313" y="192" type="line" smooth="yes"/>
      <point x="298" y="121"/>
      <point x="294" y="95"/>
      <point x="294" y="75" type="curve" smooth="yes"/>
      <point x="294" y="28"/>
      <point x="311" y="-10"/>
      <point x="372" y="-10" type="curve" smooth="yes"/>
      <point x="398" y="-10"/>
      <point x="435" y="-2"/>
      <point x="468" y="14" type="curve"/>
      <point x="465" y="22" type="line"/>
      <point x="431" y="8"/>
      <point x="406" y="0"/>
      <point x="368" y="0" type="curve" smooth="yes"/>
      <point x="331" y="0"/>
      <point x="319" y="22"/>
      <point x="319" y="60" type="curve" smooth="yes"/>
      <point x="319" y="80"/>
      <point x="322" y="103"/>
      <point x="338" y="177" type="curve" smooth="yes"/>
      <point x="412" y="526" type="line"/>
      <point x="520" y="526" type="line"/>
      <point x="524" y="536" type="line"/>
      <point x="415" y="536" type="line"/>
      <point x="428" y="598" type="line" smooth="yes"/>
      <point x="434" y="626"/>
      <point x="437" y="646"/>
      <point x="437" y="665" type="curve" smooth="yes"/>
      <point x="437" y="739"/>
      <point x="390" y="770"/>
      <point x="328" y="770" type="curve" smooth="yes"/>
      <point x="250" y="770"/>
      <point x="196" y="720"/>
      <point x="171" y="603" type="curve" smooth="yes"/>
      <point x="29" y="-58" type="line" smooth="yes"/>
      <point x="1" y="-190"/>
      <point x="-26" y="-230"/>
      <point x="-77" y="-230" type="curve" smooth="yes"/>
      <point x="-99" y="-230"/>
      <point x="-118" y="-227"/>
      <point x="-131" y="-222" type="curve"/>
      <point x="-134" y="-232" type="line"/>
      <point x="-119" y="-237"/>
      <point x="-99" y="-240"/>
    </contour>
  </outline>
</glyph>
<glyph name="uniFE22" format="2">
  <unicode hex="FE22"/>
  <anchor x="57" y="536" name="_top"/>
  <outline>
    <contour>
      <point x="-323" y="605" type="curve"/>
      <point x="-313" y="605" type="line"/>
      <point x="-283" y="657"/>
      <point x="-198" y="677"/>
      <point x="-124" y="677" type="curve" smooth="yes"/>
      <point x="-38" y="677"/>
      <point x="20" y="656"/>
      <point x="79" y="638" type="curve"/>
      <point x="84" y="659" type="line"/>
      <point x="27" y="676"/>
      <point x="-30" y="697"/>
      <point x="-120" y="697" type="curve" smooth="yes"/>
      <point x="-208" y="697"/>
      <point x="-282" y="678"/>
    </contour>
  </outline>
</glyph>
<glyph name="uniFE23" format="2">
  <unicode hex="FE23"/>
  <anchor x="57" y="536" name="_top"/>
  <outline>
    <contour>
      <point x="271" y="604" type="curve" smooth="yes"/>
      <point x="371" y="604"/>
      <point x="430" y="626"/>
      <point x="473" y="696" type="curve"/>
      <point x="463" y="696" type="line"/>
      <point x="433" y="645"/>
      <point x="357" y="624"/>
      <point x="273" y="624" type="curve" smooth="yes"/>
      <point x="197" y="624"/>
      <point x="145" y="646"/>
      <point x="84" y="664" type="curve"/>
      <point x="80" y="643" type="line"/>
      <point x="138" y="625"/>
      <point x="191" y="604"/>
    </contour>
  </outline>
</glyph>
<glyph name="a.sc" format="2">
  <advance width="532"/>
  <anchor x="201" y="0" name="bottom"/>
  <anchor x="313" y="571" name="top"/>
  <anchor x="469" y="571" name="topright"/>
  <outline>
    <contour>
      <point x="-57" y="0" type="line"/>
      <point x="128" y="0" type="line"/>
      <point x="129" y="10" type="line"/>
      <point x="95" y="10" type="line" smooth="yes"/>
      <point x="63" y="10"/>
      <point x="46" y="14"/>
      <point x="43" y="27" type="curve" smooth="yes"/>
      <point x="41" y="38"/>
      <point x="50" y="56"/>
      <point x="66" y="85" type="curve" smooth="yes"/>
      <point x="249" y="407" type="line" smooth="yes"/>
      <point x="286" y="472"/>
      <point x="302" y="500"/>
      <point x="321" y="536" type="curve"/>
      <point x="325" y="500"/>
      <point x="329" y="461"/>
      <point x="340" y="398" type="curve" smooth="yes"/>
      <point x="388" y="112" type="line" smooth="yes"/>
      <point x="397" y="58"/>
      <point x="401" y="33"/>
      <point x="391" y="21" type="curve" smooth="yes"/>
      <point x="384" y="11"/>
      <point x="364" y="10"/>
      <point x="336" y="10" type="curve" smooth="yes"/>
      <point x="313" y="10" type="line"/>
      <point x="312" y="0" type="line"/>
      <point x="475" y="0" type="line"/>
      <point x="477" y="10" type="line"/>
      <point x="473" y="10" type="line" smooth="yes"/>
      <point x="431" y="10"/>
      <point x="432" y="12"/>
      <point x="424" y="58" type="curve" smooth="yes"/>
      <point x="339" y="571" type="line"/>
      <point x="331" y="571" type="line"/>
      <point x="48" y="74" type="line" smooth="yes"/>
      <point x="15" y="17"/>
      <point x="10" y="10"/>
      <point x="-28" y="10" type="curve" smooth="yes"/>
      <point x="-55" y="10" type="line"/>
    </contour>
    <contour>
      <point x="133" y="212" type="line"/>
      <point x="385" y="212" type="line"/>
      <point x="385" y="222" type="line"/>
      <point x="133" y="222" type="line"/>
    </contour>
  </outline>
</glyph>
<glyph name="bracketleft.sc" format="2">
  <advance width="169"/>
  <outline>
    <contour>
      <point x="-49" y="-104" type="line"/>
      <point x="79" y="-104" type="line"/>
      <point x="82" y="-94" type="line"/>
      <point x="27" y="-94" type="line" smooth="yes"/>
      <point x="-10" y="-94"/>
      <point x="-16" y="-90"/>
      <point x="-16" y="-77" type="curve" smooth="yes"/>
      <point x="-16" y="-70"/>
      <point x="-12" y="-57"/>
      <point x="-9" y="-42" type="curve" smooth="yes"/>
      <point x="117" y="544" type="line" smooth="yes"/>
      <point x="128" y="595"/>
      <point x="133" y="598"/>
      <point x="177" y="598" type="curve" smooth="yes"/>
      <point x="228" y="598" type="line"/>
      <point x="231" y="608" type="line"/>
      <point x="102" y="608" type="line"/>
    </contour>
  </outline>
</glyph>
<glyph name="caroncommaaccent" format="2">
  <advance width="500"/>
  <anchor x="118" y="536" name="_topright"/>
  <outline>
    <contour>
      <point x="169" y="600" type="line"/>
      <point x="177" y="600" type="line"/>
      <point x="199" y="638"/>
      <point x="234" y="701"/>
      <point x="260" y="752" type="curve"/>
      <point x="260" y="760" type="line"/>
      <point x="230" y="760" type="line"/>
      <point x="212" y="712"/>
      <point x="189" y="650"/>
      <point x="169" y="608" type="curve"/>
    </contour>
  </outline>
</glyph>
<glyph name="dotmacron" format="2">
  <advance width="577"/>
  <outline>
    <contour>
      <point x="274" y="754" type="line"/>
      <point x="509" y="754" type="line"/>
      <point x="513" y="774" type="line"/>
      <point x="278" y="774" type="line"/>
    </contour>
    <contour>
      <point x="361" y="613" type="curve" smooth="yes"/>
      <point x="386" y="613"/>
      <point x="395" y="645"/>
      <point x="395" y="673" type="curve" smooth="yes"/>
      <point x="395" y="688"/>
      <point x="389" y="693"/>
      <point x="378" y="693" type="curve" smooth="yes"/>
      <point x="354" y="693"/>
      <point x="344" y="657"/>
      <point x="344" y="632" type="curve" smooth="yes"/>
      <point x="344" y="617"/>
      <point x="351" y="613"/>
    </contour>
  </outline>
</glyph>
<glyph name="exclam.sc" format="2">
  <advance width="210"/>
  <outline>
    <contour>
      <point x="77" y="151" type="line"/>
      <point x="89" y="151" type="line"/>
      <point x="186" y="571" type="line"/>
      <point x="156" y="571" type="line"/>
    </contour>
    <contour>
      <point x="56" y="-7" type="curve" smooth="yes"/>
      <point x="82" y="-7"/>
      <point x="92" y="23"/>
      <point x="92" y="49" type="curve" smooth="yes"/>
      <point x="92" y="66"/>
      <point x="85" y="73"/>
      <point x="73" y="73" type="curve" smooth="yes"/>
      <point x="46" y="73"/>
      <point x="38" y="42"/>
      <point x="38" y="17" type="curve" smooth="yes"/>
      <point x="38" y="-1"/>
      <point x="45" y="-7"/>
    </contour>
  </outline>
</glyph>
<glyph name="f.ss02" format="2">
  <advance width="235"/>
  <anchor x="56" y="0" name="bottom"/>
  <anchor x="300" y="770" name="top"/>
  <anchor x="445" y="770" name="topright"/>
  <outline>
    <contour>
      <point x="41" y="0" type="line"/>
      <point x="69" y="0" type="line"/>
      <point x="181" y="526" type="line"/>
      <point x="271" y="526" type="line"/>
      <point x="273" y="536" type="line"/>
      <point x="183" y="536" type="line"/>
      <point x="212" y="666" type="line" smooth="yes"/>
      <point x="222" y="711"/>
      <point x="249" y="760"/>
      <point x="308" y="760" type="curve" smooth="yes"/>
      <point x="356" y="760"/>
      <point x="371" y="739"/>
      <point x="371" y="658" type="curve"/>
      <point x="386" y="658"/>
      <point x="398" y="670"/>
      <point x="398" y="688" type="curve" smooth="yes"/>
      <point x="398" y="735"/>
      <point x="365" y="770"/>
      <point x="308" y="770" type="curve" smooth="yes"/>
      <point x="233" y="770"/>
      <point x="188" y="706"/>
      <point x="168" y="603" type="curve" smooth="yes"/>
      <point x="155" y="536" type="line"/>
      <point x="70" y="531" type="line"/>
      <point x="69" y="526" type="line"/>
      <point x="153" y="526" type="line"/>
    </contour>
  </outline>
</glyph>
<glyph name="one.tosf" format="2">
  <advance width="511"/>
  <outline>
    <contour>
      <point x="204" y="0" type="line"/>
      <point x="233" y="0" type="line"/>
      <point x="346" y="536" type="line"/>
      <point x="336" y="536" type="line"/>
      <point x="295" y="502" type="line" smooth="yes"/>
      <point x="225" y="444"/>
      <point x="176" y="437"/>
      <point x="143" y="437" type="curve"/>
      <point x="144" y="422"/>
      <point x="150" y="409"/>
      <point x="167" y="409" type="curve" smooth="yes"/>
      <point x="192" y="409"/>
      <point x="225" y="433"/>
      <point x="311" y="503" type="curve"/>
    </contour>
  </outline>
</glyph>
<glyph name="s.sc" format="2">
  <advance width="408"/>
  <anchor x="152" y="0" name="bottom"/>
  <anchor x="274" y="571" name="top"/>
  <anchor x="458" y="571" name="topright"/>
  <outline>
    <contour>
      <point x="160" y="-7" type="curve" smooth="yes"/>
      <point x="276" y="-7"/>
      <point x="349" y="48"/>
      <point x="349" y="142" type="curve" smooth="yes"/>
      <point x="349" y="208"/>
      <point x="320" y="244"/>
      <point x="221" y="302" type="curve" smooth="yes"/>
      <point x="159" y="338"/>
      <point x="127" y="369"/>
      <point x="127" y="426" type="curve" smooth="yes"/>
      <point x="127" y="522"/>
      <point x="196" y="568"/>
      <point x="266" y="568" type="curve" smooth="yes"/>
      <point x="352" y="568"/>
      <point x="373" y="516"/>
      <point x="373" y="457" type="curve"/>
      <point x="390" y="457"/>
      <point x="400" y="467"/>
      <point x="400" y="486" type="curve" smooth="yes"/>
      <point x="400" y="530"/>
      <point x="361" y="578"/>
      <point x="266" y="578" type="curve" smooth="yes"/>
      <point x="161" y="578"/>
      <point x="99" y="511"/>
      <point x="99" y="425" type="curve" smooth="yes"/>
      <point x="99" y="353"/>
      <point x="139" y="318"/>
      <point x="203" y="281" type="curve" smooth="yes"/>
      <point x="299" y="225"/>
      <point x="321" y="193"/>
      <point x="321" y="139" type="curve" smooth="yes"/>
      <point x="321" y="52"/>
      <point x="256" y="3"/>
      <point x="160" y="3" type="curve" smooth="yes"/>
      <point x="60" y="3"/>
      <point x="21" y="59"/>
      <point x="21" y="151" type="curve"/>
      <point x="8" y="151"/>
      <point x="-4" y="138"/>
      <point x="-4" y="117" type="curve" smooth="yes"/>
      <point x="-4" y="48"/>
      <point x="48" y="-7"/>
    </contour>
  </outline>
</glyph>
<glyph name="tbar.sc" format="2">
  <advance width="455"/>
  <anchor x="177" y="0" name="bottom"/>
  <anchor x="299" y="571" name="top"/>
  <anchor x="238" y="286" name="center"/>
  <anchor x="506" y="571" name="topright"/>
  <outline>
    <contour>
      <point x="64" y="278" type="line"/>
      <point x="412" y="278" type="line"/>
      <point x="414" y="288" type="line"/>
      <point x="66" y="288" type="line"/>
    </contour>
    <component base="t.sc"/>
  </outline>
</glyph>
<glyph name="two.osf" format="2">
  <advance width="432"/>
  <outline>
    <contour>
      <point x="-37" y="0" type="line"/>
      <point x="354" y="0" type="line"/>
      <point x="382" y="126" type="line"/>
      <point x="372" y="126" type="line"/>
      <point x="358" y="77" type="line" smooth="yes"/>
      <point x="347" y="39"/>
      <point x="344" y="25"/>
      <point x="289" y="25" type="curve" smooth="yes"/>
      <point x="-14" y="25" type="line"/>
      <point x="224" y="199" type="line" smooth="yes"/>
      <point x="363" y="300"/>
      <point x="392" y="333"/>
      <point x="392" y="407" type="curve" smooth="yes"/>
      <point x="392" y="486"/>
      <point x="335" y="544"/>
      <point x="233" y="544" type="curve" smooth="yes"/>
      <point x="122" y="544"/>
      <point x="69" y="483"/>
      <point x="69" y="426" type="curve" smooth="yes"/>
      <point x="69" y="405"/>
      <point x="79" y="394"/>
      <point x="95" y="394" type="curve"/>
      <point x="95" y="481"/>
      <point x="138" y="534"/>
      <point x="233" y="534" type="curve" smooth="yes"/>
      <point x="316" y="534"/>
      <point x="367" y="477"/>
      <point x="367" y="407" type="curve" smooth="yes"/>
      <point x="367" y="341"/>
      <point x="344" y="302"/>
      <point x="237" y="223" type="curve" smooth="yes"/>
      <point x="-31" y="25" type="line"/>
    </contour>
  </outline>
</glyph>
<glyph name="u.sc" format="2">
  <advance width="578"/>
  <anchor x="251" y="0" name="bottom"/>
  <anchor x="357" y="571" name="top"/>
  <anchor x="657" y="571" name="topright"/>
  <outline>
    <contour>
      <point x="251" y="-8" type="curve" smooth="yes"/>
      <point x="381" y="-8"/>
      <point x="425" y="57"/>
      <point x="445" y="149" type="curve" smooth="yes"/>
      <point x="521" y="508" type="line" smooth="yes"/>
      <point x="531" y="554"/>
      <point x="538" y="561"/>
      <point x="583" y="561" type="curve" smooth="yes"/>
      <point x="625" y="561" type="line"/>
      <point x="627" y="571" type="line"/>
      <point x="435" y="571" type="line"/>
      <point x="433" y="561" type="line"/>
      <point x="474" y="561" type="line" smooth="yes"/>
      <point x="497" y="561"/>
      <point x="509" y="560"/>
      <point x="513" y="551" type="curve" smooth="yes"/>
      <point x="518" y="541"/>
      <point x="515" y="525"/>
      <point x="509" y="496" type="curve" smooth="yes"/>
      <point x="435" y="150" type="line" smooth="yes"/>
      <point x="414" y="52"/>
      <point x="368" y="6"/>
      <point x="251" y="6" type="curve" smooth="yes"/>
      <point x="165" y="6"/>
      <point x="115" y="60"/>
      <point x="115" y="127" type="curve" smooth="yes"/>
      <point x="115" y="142"/>
      <point x="118" y="173"/>
      <point x="126" y="211" type="curve" smooth="yes"/>
      <point x="187" y="494" type="line" smooth="yes"/>
      <point x="200" y="554"/>
      <point x="207" y="561"/>
      <point x="252" y="561" type="curve" smooth="yes"/>
      <point x="284" y="561" type="line"/>
      <point x="286" y="571" type="line"/>
      <point x="94" y="571" type="line"/>
      <point x="92" y="561" type="line"/>
      <point x="123" y="561" type="line" smooth="yes"/>
      <point x="160" y="561"/>
      <point x="165" y="558"/>
      <point x="165" y="537" type="curve" smooth="yes"/>
      <point x="165" y="528"/>
      <point x="163" y="515"/>
      <point x="159" y="496" type="curve" smooth="yes"/>
      <point x="97" y="212" type="line" smooth="yes"/>
      <point x="90" y="178"/>
      <point x="87" y="147"/>
      <point x="87" y="129" type="curve" smooth="yes"/>
      <point x="87" y="41"/>
      <point x="148" y="-8"/>
    </contour>
  </outline>
</glyph>
<glyph name="z.sc" format="2">
  <advance width="470"/>
  <anchor x="168" y="0" name="bottom"/>
  <anchor x="290" y="571" name="top"/>
  <anchor x="478" y="571" name="topright"/>
  <outline>
    <contour>
      <point x="-7" y="0" type="line"/>
      <point x="375" y="0" type="line"/>
      <point x="402" y="111" type="line"/>
      <point x="392" y="111" type="line"/>
      <point x="375" y="54" type="line" smooth="yes"/>
      <point x="366" y="25"/>
      <point x="359" y="15"/>
      <point x="318" y="15" type="curve" smooth="yes"/>
      <point x="33" y="15" type="line"/>
      <point x="469" y="560" type="line"/>
      <point x="471" y="571" type="line"/>
      <point x="109" y="571" type="line"/>
      <point x="82" y="467" type="line"/>
      <point x="92" y="467" type="line"/>
      <point x="109" y="519" type="line" smooth="yes"/>
      <point x="118" y="547"/>
      <point x="126" y="555"/>
      <point x="174" y="555" type="curve" smooth="yes"/>
      <point x="430" y="555" type="line"/>
      <point x="-5" y="10" type="line"/>
    </contour>
  </outline>
</glyph>
